<svg width="37" height="28" viewBox="0 0 37 28" fill="none" xmlns="http://www.w3.org/2000/svg">
<path d="M4.5 26L3.96452 26.5251L4.52891 27.1006L5.06231 26.4963L4.5 26ZM5.25 3C5.25 2.58579 4.91421 2.25 4.5 2.25C4.08579 2.25 3.75 2.58579 3.75 3H5.25ZM8.56231 22.5308C8.8364 22.2202 8.80685 21.7463 8.4963 21.4722C8.18574 21.1981 7.71179 21.2276 7.43769 21.5382L8.56231 22.5308ZM1.57411 21.5519C1.30759 21.2348 0.834486 21.1938 0.517411 21.4604C0.200336 21.7269 0.159359 22.2 0.425885 22.5171L1.57411 21.5519ZM5.25 26C5.25 25.9825 5.25 25.9649 5.25 25.9473C5.25 25.9297 5.25 25.9121 5.25 25.8945C5.25 25.8769 5.25 25.8593 5.25 25.8416C5.25 25.8239 5.25 25.8063 5.25 25.7886C5.25 25.7709 5.25 25.7532 5.25 25.7354C5.25 25.7177 5.25 25.6999 5.25 25.6822C5.25 25.6644 5.25 25.6466 5.25 25.6288C5.25 25.611 5.25 25.5932 5.25 25.5754C5.25 25.5575 5.25 25.5396 5.25 25.5218C5.25 25.5039 5.25 25.486 5.25 25.4681C5.25 25.4502 5.25 25.4322 5.25 25.4143C5.25 25.3963 5.25 25.3784 5.25 25.3604C5.25 25.3424 5.25 25.3244 5.25 25.3064C5.25 25.2884 5.25 25.2703 5.25 25.2523C5.25 25.2342 5.25 25.2162 5.25 25.1981C5.25 25.18 5.25 25.1619 5.25 25.1438C5.25 25.1256 5.25 25.1075 5.25 25.0893C5.25 25.0712 5.25 25.053 5.25 25.0348C5.25 25.0166 5.25 24.9984 5.25 24.9802C5.25 24.962 5.25 24.9438 5.25 24.9255C5.25 24.9072 5.25 24.889 5.25 24.8707C5.25 24.8524 5.25 24.8341 5.25 24.8158C5.25 24.7975 5.25 24.7791 5.25 24.7608C5.25 24.7424 5.25 24.724 5.25 24.7057C5.25 24.6873 5.25 24.6689 5.25 24.6505C5.25 24.6321 5.25 24.6136 5.25 24.5952C5.25 24.5767 5.25 24.5583 5.25 24.5398C5.25 24.5213 5.25 24.5028 5.25 24.4843C5.25 24.4658 5.25 24.4473 5.25 24.4287C5.25 24.4102 5.25 24.3917 5.25 24.3731C5.25 24.3545 5.25 24.3359 5.25 24.3173C5.25 24.2987 5.25 24.2801 5.25 24.2615C5.25 24.2429 5.25 24.2242 5.25 24.2056C5.25 24.1869 5.25 24.1682 5.25 24.1496C5.25 24.1309 5.25 24.1122 5.25 24.0935C5.25 24.0748 5.25 24.056 5.25 24.0373C5.25 24.0185 5.25 23.9998 5.25 23.981C5.25 23.9622 5.25 23.9435 5.25 23.9247C5.25 23.9059 5.25 23.887 5.25 23.8682C5.25 23.8494 5.25 23.8306 5.25 23.8117C5.25 23.7929 5.25 23.774 5.25 23.7551C5.25 23.7362 5.25 23.7173 5.25 23.6984C5.25 23.6795 5.25 23.6606 5.25 23.6417C5.25 23.6227 5.25 23.6038 5.25 23.5848C5.25 23.5659 5.25 23.5469 5.25 23.5279C5.25 23.5089 5.25 23.4899 5.25 23.4709C5.25 23.4519 5.25 23.4329 5.25 23.4139C5.25 23.3948 5.25 23.3758 5.25 23.3567C5.25 23.3377 5.25 23.3186 5.25 23.2995C5.25 23.2804 5.25 23.2613 5.25 23.2422C5.25 23.2231 5.25 23.204 5.25 23.1848C5.25 23.1657 5.25 23.1466 5.25 23.1274C5.25 23.1082 5.25 23.0891 5.25 23.0699C5.25 23.0507 5.25 23.0315 5.25 23.0123C5.25 22.9931 5.25 22.9739 5.25 22.9547C5.25 22.9354 5.25 22.9162 5.25 22.897C5.25 22.8777 5.25 22.8585 5.25 22.8392C5.25 22.8199 5.25 22.8006 5.25 22.7813C5.25 22.762 5.25 22.7427 5.25 22.7234C5.25 22.7041 5.25 22.6848 5.25 22.6654C5.25 22.6461 5.25 22.6268 5.25 22.6074C5.25 22.588 5.25 22.5687 5.25 22.5493C5.25 22.5299 5.25 22.5105 5.25 22.4911C5.25 22.4717 5.25 22.4523 5.25 22.4329C5.25 22.4135 5.25 22.394 5.25 22.3746C5.25 22.3552 5.25 22.3357 5.25 22.3162C5.25 22.2968 5.25 22.2773 5.25 22.2578C5.25 22.2384 5.25 22.2189 5.25 22.1994C5.25 22.1799 5.25 22.1604 5.25 22.1408C5.25 22.1213 5.25 22.1018 5.25 22.0823C5.25 22.0627 5.25 22.0432 5.25 22.0236C5.25 22.0041 5.25 21.9845 5.25 21.9649C5.25 21.9453 5.25 21.9258 5.25 21.9062C5.25 21.8866 5.25 21.867 5.25 21.8474C5.25 21.8278 5.25 21.8081 5.25 21.7885C5.25 21.7689 5.25 21.7493 5.25 21.7296C5.25 21.71 5.25 21.6903 5.25 21.6707C5.25 21.651 5.25 21.6313 5.25 21.6117C5.25 21.592 5.25 21.5723 5.25 21.5526C5.25 21.5329 5.25 21.5132 5.25 21.4935C5.25 21.4738 5.25 21.4541 5.25 21.4344C5.25 21.4146 5.25 21.3949 5.25 21.3752C5.25 21.3554 5.25 21.3357 5.25 21.3159C5.25 21.2962 5.25 21.2764 5.25 21.2566C5.25 21.2369 5.25 21.2171 5.25 21.1973C5.25 21.1775 5.25 21.1577 5.25 21.1379C5.25 21.1181 5.25 21.0983 5.25 21.0785C5.25 21.0587 5.25 21.0389 5.25 21.0191C5.25 20.9992 5.25 20.9794 5.25 20.9596C5.25 20.9397 5.25 20.9199 5.25 20.9C5.25 20.8802 5.25 20.8603 5.25 20.8405C5.25 20.8206 5.25 20.8007 5.25 20.7809C5.25 20.761 5.25 20.7411 5.25 20.7212C5.25 20.7013 5.25 20.6814 5.25 20.6615C5.25 20.6416 5.25 20.6217 5.25 20.6018C5.25 20.5819 5.25 20.562 5.25 20.5421C5.25 20.5221 5.25 20.5022 5.25 20.4823C5.25 20.4623 5.25 20.4424 5.25 20.4225C5.25 20.4025 5.25 20.3826 5.25 20.3626C5.25 20.3427 5.25 20.3227 5.25 20.3027C5.25 20.2828 5.25 20.2628 5.25 20.2428C5.25 20.2228 5.25 20.2029 5.25 20.1829C5.25 20.1629 5.25 20.1429 5.25 20.1229C5.25 20.1029 5.25 20.0829 5.25 20.0629C5.25 20.0429 5.25 20.0229 5.25 20.0029C5.25 19.9829 5.25 19.9629 5.25 19.9428C5.25 19.9228 5.25 19.9028 5.25 19.8828C5.25 19.8627 5.25 19.8427 5.25 19.8227C5.25 19.8026 5.25 19.7826 5.25 19.7625C5.25 19.7425 5.25 19.7224 5.25 19.7024C5.25 19.6823 5.25 19.6623 5.25 19.6422C5.25 19.6222 5.25 19.6021 5.25 19.582C5.25 19.562 5.25 19.5419 5.25 19.5218C5.25 19.5018 5.25 19.4817 5.25 19.4616C5.25 19.4415 5.25 19.4215 5.25 19.4014C5.25 19.3813 5.25 19.3612 5.25 19.3411C5.25 19.321 5.25 19.3009 5.25 19.2808C5.25 19.2607 5.25 19.2406 5.25 19.2205C5.25 19.2004 5.25 19.1803 5.25 19.1602C5.25 19.1401 5.25 19.12 5.25 19.0999C5.25 19.0798 5.25 19.0597 5.25 19.0396C5.25 19.0195 5.25 18.9993 5.25 18.9792C5.25 18.9591 5.25 18.939 5.25 18.9189C5.25 18.8988 5.25 18.8786 5.25 18.8585C5.25 18.8384 5.25 18.8183 5.25 18.7981C5.25 18.778 5.25 18.7579 5.25 18.7377C5.25 18.7176 5.25 18.6975 5.25 18.6773C5.25 18.6572 5.25 18.6371 5.25 18.6169C5.25 18.5968 5.25 18.5767 5.25 18.5565C5.25 18.5364 5.25 18.5163 5.25 18.4961C5.25 18.476 5.25 18.4558 5.25 18.4357C5.25 18.4156 5.25 18.3954 5.25 18.3753C5.25 18.3551 5.25 18.335 5.25 18.3149C5.25 18.2947 5.25 18.2746 5.25 18.2544C5.25 18.2343 5.25 18.2141 5.25 18.194C5.25 18.1739 5.25 18.1537 5.25 18.1336C5.25 18.1134 5.25 18.0933 5.25 18.0731C5.25 18.053 5.25 18.0329 5.25 18.0127C5.25 17.9926 5.25 17.9724 5.25 17.9523C5.25 17.9322 5.25 17.912 5.25 17.8919C5.25 17.8717 5.25 17.8516 5.25 17.8315C5.25 17.8113 5.25 17.7912 5.25 17.7711C5.25 17.7509 5.25 17.7308 5.25 17.7106C5.25 17.6905 5.25 17.6704 5.25 17.6502C5.25 17.6301 5.25 17.61 5.25 17.5899C5.25 17.5697 5.25 17.5496 5.25 17.5295C5.25 17.5093 5.25 17.4892 5.25 17.4691C5.25 17.449 5.25 17.4289 5.25 17.4087C5.25 17.3886 5.25 17.3685 5.25 17.3484C5.25 17.3283 5.25 17.3081 5.25 17.288C5.25 17.2679 5.25 17.2478 5.25 17.2277C5.25 17.2076 5.25 17.1875 5.25 17.1674C5.25 17.1473 5.25 17.1272 5.25 17.1071C5.25 17.087 5.25 17.0669 5.25 17.0468C5.25 17.0267 5.25 17.0066 5.25 16.9865C5.25 16.9664 5.25 16.9464 5.25 16.9263C5.25 16.9062 5.25 16.8861 5.25 16.866C5.25 16.846 5.25 16.8259 5.25 16.8058C5.25 16.7857 5.25 16.7657 5.25 16.7456C5.25 16.7256 5.25 16.7055 5.25 16.6854C5.25 16.6654 5.25 16.6453 5.25 16.6253C5.25 16.6052 5.25 16.5852 5.25 16.5651C5.25 16.5451 5.25 16.5251 5.25 16.505C5.25 16.485 5.25 16.465 5.25 16.4449C5.25 16.4249 5.25 16.4049 5.25 16.3849C5.25 16.3649 5.25 16.3448 5.25 16.3248C5.25 16.3048 5.25 16.2848 5.25 16.2648C5.25 16.2448 5.25 16.2248 5.25 16.2048C5.25 16.1848 5.25 16.1649 5.25 16.1449C5.25 16.1249 5.25 16.1049 5.25 16.0849C5.25 16.065 5.25 16.045 5.25 16.025C5.25 16.0051 5.25 15.9851 5.25 15.9652C5.25 15.9452 5.25 15.9253 5.25 15.9053C5.25 15.8854 5.25 15.8655 5.25 15.8455C5.25 15.8256 5.25 15.8057 5.25 15.7858C5.25 15.7658 5.25 15.7459 5.25 15.726C5.25 15.7061 5.25 15.6862 5.25 15.6663C5.25 15.6464 5.25 15.6265 5.25 15.6066C5.25 15.5868 5.25 15.5669 5.25 15.547C5.25 15.5271 5.25 15.5073 5.25 15.4874C5.25 15.4676 5.25 15.4477 5.25 15.4279C5.25 15.408 5.25 15.3882 5.25 15.3683C5.25 15.3485 5.25 15.3287 5.25 15.3089C5.25 15.289 5.25 15.2692 5.25 15.2494C5.25 15.2296 5.25 15.2098 5.25 15.19C5.25 15.1702 5.25 15.1504 5.25 15.1307C5.25 15.1109 5.25 15.0911 5.25 15.0713C5.25 15.0516 5.25 15.0318 5.25 15.0121C5.25 14.9923 5.25 14.9726 5.25 14.9529C5.25 14.9331 5.25 14.9134 5.25 14.8937C5.25 14.874 5.25 14.8542 5.25 14.8345C5.25 14.8148 5.25 14.7951 5.25 14.7755C5.25 14.7558 5.25 14.7361 5.25 14.7164C5.25 14.6968 5.25 14.6771 5.25 14.6574C5.25 14.6378 5.25 14.6181 5.25 14.5985C5.25 14.5789 5.25 14.5592 5.25 14.5396C5.25 14.52 5.25 14.5004 5.25 14.4808C5.25 14.4612 5.25 14.4416 5.25 14.422C5.25 14.4024 5.25 14.3828 5.25 14.3633C5.25 14.3437 5.25 14.3242 5.25 14.3046C5.25 14.2851 5.25 14.2655 5.25 14.246C5.25 14.2265 5.25 14.2069 5.25 14.1874C5.25 14.1679 5.25 14.1484 5.25 14.1289C5.25 14.1094 5.25 14.0899 5.25 14.0705C5.25 14.051 5.25 14.0315 5.25 14.0121C5.25 13.9926 5.25 13.9732 5.25 13.9537C5.25 13.9343 5.25 13.9149 5.25 13.8955C5.25 13.8761 5.25 13.8567 5.25 13.8373C5.25 13.8179 5.25 13.7985 5.25 13.7791C5.25 13.7597 5.25 13.7404 5.25 13.721C5.25 13.7017 5.25 13.6823 5.25 13.663C5.25 13.6437 5.25 13.6244 5.25 13.6051C5.25 13.5858 5.25 13.5665 5.25 13.5472C5.25 13.5279 5.25 13.5086 5.25 13.4893C5.25 13.4701 5.25 13.4508 5.25 13.4316C5.25 13.4123 5.25 13.3931 5.25 13.3739C5.25 13.3547 5.25 13.3355 5.25 13.3163C5.25 13.2971 5.25 13.2779 5.25 13.2587C5.25 13.2396 5.25 13.2204 5.25 13.2012C5.25 13.1821 5.25 13.163 5.25 13.1438C5.25 13.1247 5.25 13.1056 5.25 13.0865C5.25 13.0674 5.25 13.0483 5.25 13.0292C5.25 13.0102 5.25 12.9911 5.25 12.972C5.25 12.953 5.25 12.9339 5.25 12.9149C5.25 12.8959 5.25 12.8769 5.25 12.8579C5.25 12.8389 5.25 12.8199 5.25 12.8009C5.25 12.7819 5.25 12.763 5.25 12.744C5.25 12.7251 5.25 12.7061 5.25 12.6872C5.25 12.6683 5.25 12.6494 5.25 12.6305C5.25 12.6116 5.25 12.5927 5.25 12.5738C5.25 12.555 5.25 12.5361 5.25 12.5173C5.25 12.4984 5.25 12.4796 5.25 12.4608C5.25 12.442 5.25 12.4232 5.25 12.4044C5.25 12.3856 5.25 12.3668 5.25 12.3481C5.25 12.3293 5.25 12.3105 5.25 12.2918C5.25 12.2731 5.25 12.2544 5.25 12.2357C5.25 12.217 5.25 12.1983 5.25 12.1796C5.25 12.1609 5.25 12.1423 5.25 12.1236C5.25 12.105 5.25 12.0863 5.25 12.0677C5.25 12.0491 5.25 12.0305 5.25 12.0119C5.25 11.9933 5.25 11.9748 5.25 11.9562C5.25 11.9376 5.25 11.9191 5.25 11.9006C5.25 11.882 5.25 11.8635 5.25 11.845C5.25 11.8265 5.25 11.8081 5.25 11.7896C5.25 11.7711 5.25 11.7527 5.25 11.7342C5.25 11.7158 5.25 11.6974 5.25 11.679C5.25 11.6606 5.25 11.6422 5.25 11.6238C5.25 11.6054 5.25 11.5871 5.25 11.5687C5.25 11.5504 5.25 11.5321 5.25 11.5138C5.25 11.4955 5.25 11.4772 5.25 11.4589C5.25 11.4406 5.25 11.4224 5.25 11.4041C5.25 11.3859 5.25 11.3677 5.25 11.3494C5.25 11.3312 5.25 11.313 5.25 11.2949C5.25 11.2767 5.25 11.2585 5.25 11.2404C5.25 11.2222 5.25 11.2041 5.25 11.186C5.25 11.1679 5.25 11.1498 5.25 11.1317C5.25 11.1137 5.25 11.0956 5.25 11.0776C5.25 11.0595 5.25 11.0415 5.25 11.0235C5.25 11.0055 5.25 10.9875 5.25 10.9695C5.25 10.9515 5.25 10.9336 5.25 10.9157C5.25 10.8977 5.25 10.8798 5.25 10.8619C5.25 10.844 5.25 10.8261 5.25 10.8083C5.25 10.7904 5.25 10.7725 5.25 10.7547C5.25 10.7369 5.25 10.7191 5.25 10.7013C5.25 10.6835 5.25 10.6657 5.25 10.648C5.25 10.6302 5.25 10.6125 5.25 10.5948C5.25 10.577 5.25 10.5593 5.25 10.5417C5.25 10.524 5.25 10.5063 5.25 10.4887C5.25 10.471 5.25 10.4534 5.25 10.4358C5.25 10.4182 5.25 10.4006 5.25 10.383C5.25 10.3655 5.25 10.3479 5.25 10.3304C5.25 10.3129 5.25 10.2953 5.25 10.2779C5.25 10.2604 5.25 10.2429 5.25 10.2254C5.25 10.208 5.25 10.1906 5.25 10.1731C5.25 10.1557 5.25 10.1383 5.25 10.121C5.25 10.1036 5.25 10.0862 5.25 10.0689C5.25 10.0516 5.25 10.0343 5.25 10.017C5.25 9.99968 5.25 9.98241 5.25 9.96515C5.25 9.9479 5.25 9.93067 5.25 9.91346C5.25 9.89624 5.25 9.87905 5.25 9.86188C5.25 9.84471 5.25 9.82756 5.25 9.81043C5.25 9.7933 5.25 9.77619 5.25 9.7591C5.25 9.74202 5.25 9.72495 5.25 9.7079C5.25 9.69086 5.25 9.67383 5.25 9.65682C5.25 9.63982 5.25 9.62284 5.25 9.60588C5.25 9.58891 5.25 9.57197 5.25 9.55505C5.25 9.53813 5.25 9.52123 5.25 9.50436C5.25 9.48748 5.25 9.47063 5.25 9.45379C5.25 9.43696 5.25 9.42015 5.25 9.40336C5.25 9.38657 5.25 9.3698 5.25 9.35305C5.25 9.33631 5.25 9.31958 5.25 9.30288C5.25 9.28618 5.25 9.2695 5.25 9.25284C5.25 9.23619 5.25 9.21955 5.25 9.20294C5.25 9.18632 5.25 9.16973 5.25 9.15316C5.25 9.1366 5.25 9.12005 5.25 9.10353C5.25 9.087 5.25 9.0705 5.25 9.05403C5.25 9.03755 5.25 9.0211 5.25 9.00466C5.25 8.98823 5.25 8.97182 5.25 8.95544C5.25 8.93905 5.25 8.92269 5.25 8.90635C5.25 8.89001 5.25 8.87369 5.25 8.8574C5.25 8.84111 5.25 8.82484 5.25 8.80859C5.25 8.79235 5.25 8.77612 5.25 8.75993C5.25 8.74373 5.25 8.72755 5.25 8.7114C5.25 8.69525 5.25 8.67912 5.25 8.66302C5.25 8.64692 5.25 8.63084 5.25 8.61478C5.25 8.59873 5.25 8.5827 5.25 8.56669C5.25 8.55068 5.25 8.5347 5.25 8.51874C5.25 8.50278 5.25 8.48685 5.25 8.47094C5.25 8.45503 5.25 8.43914 5.25 8.42328C5.25 8.40742 5.25 8.39159 5.25 8.37577C5.25 8.35996 5.25 8.34418 5.25 8.32842C5.25 8.31265 5.25 8.29692 5.25 8.28121C5.25 8.2655 5.25 8.24981 5.25 8.23415C5.25 8.21849 5.25 8.20285 5.25 8.18724C5.25 8.17163 5.25 8.15605 5.25 8.14049C5.25 8.12493 5.25 8.10939 5.25 8.09389C5.25 8.07838 5.25 8.06289 5.25 8.04744C5.25 8.03198 5.25 8.01655 5.25 8.00115C5.25 7.98574 5.25 7.97036 5.25 7.95501C5.25 7.93966 5.25 7.92433 5.25 7.90903C5.25 7.89373 5.25 7.87845 5.25 7.8632C5.25 7.84796 5.25 7.83273 5.25 7.81754C5.25 7.80234 5.25 7.78717 5.25 7.77203C5.25 7.75689 5.25 7.74177 5.25 7.72668C5.25 7.7116 5.25 7.69654 5.25 7.6815C5.25 7.66646 5.25 7.65146 5.25 7.63647C5.25 7.62149 5.25 7.60654 5.25 7.59161C5.25 7.57669 5.25 7.56179 5.25 7.54692C5.25 7.53204 5.25 7.5172 5.25 7.50238C5.25 7.48756 5.25 7.47277 5.25 7.45801C5.25 7.44325 5.25 7.42851 5.25 7.41381C5.25 7.3991 5.25 7.38442 5.25 7.36977C5.25 7.35512 5.25 7.3405 5.25 7.3259C5.25 7.3113 5.25 7.29674 5.25 7.2822C5.25 7.26766 5.25 7.25315 5.25 7.23867C5.25 7.22418 5.25 7.20973 5.25 7.1953C5.25 7.18088 5.25 7.16648 5.25 7.15211C5.25 7.13774 5.25 7.12341 5.25 7.10909C5.25 7.09478 5.25 7.0805 5.25 7.06625C5.25 7.052 5.25 7.03777 5.25 7.02357C5.25 7.00938 5.25 6.99521 5.25 6.98108C5.25 6.96694 5.25 6.95283 5.25 6.93875C5.25 6.92467 5.25 6.91063 5.25 6.89661C5.25 6.88259 5.25 6.8686 5.25 6.85464C5.25 6.84068 5.25 6.82674 5.25 6.81284C5.25 6.79894 5.25 6.78507 5.25 6.77123C5.25 6.75739 5.25 6.74358 5.25 6.72979C5.25 6.71601 5.25 6.70226 5.25 6.68854C5.25 6.67482 5.25 6.66113 5.25 6.64747C5.25 6.63381 5.25 6.62017 5.25 6.60658C5.25 6.59298 5.25 6.5794 5.25 6.56587C5.25 6.55233 5.25 6.53882 5.25 6.52534C5.25 6.51186 5.25 6.49842 5.25 6.485C5.25 6.47159 5.25 6.4582 5.25 6.44485C5.25 6.43149 5.25 6.41817 5.25 6.40488C5.25 6.39159 5.25 6.37833 5.25 6.3651C5.25 6.35187 5.25 6.33867 5.25 6.3255C5.25 6.31234 5.25 6.2992 5.25 6.2861C5.25 6.273 5.25 6.25992 5.25 6.24689C5.25 6.23384 5.25 6.22084 5.25 6.20786C5.25 6.19488 5.25 6.18194 5.25 6.16903C5.25 6.15611 5.25 6.14323 5.25 6.13039C5.25 6.11754 5.25 6.10472 5.25 6.09194C5.25 6.07915 5.25 6.0664 5.25 6.05368C5.25 6.04097 5.25 6.02828 5.25 6.01563C5.25 6.00297 5.25 5.99035 5.25 5.97776C5.25 5.96517 5.25 5.95262 5.25 5.9401C5.25 5.92757 5.25 5.91508 5.25 5.90263C5.25 5.89017 5.25 5.87775 5.25 5.86535C5.25 5.85296 5.25 5.84061 5.25 5.82828C5.25 5.81596 5.25 5.80367 5.25 5.79141C5.25 5.77915 5.25 5.76693 5.25 5.75474C5.25 5.74255 5.25 5.73039 5.25 5.71827C5.25 5.70615 5.25 5.69406 5.25 5.682C5.25 5.66995 5.25 5.65792 5.25 5.64594C5.25 5.63395 5.25 5.622 5.25 5.61008C5.25 5.59816 5.25 5.58627 5.25 5.57442C5.25 5.56257 5.25 5.55075 5.25 5.53897C5.25 5.52719 5.25 5.51544 5.25 5.50373C5.25 5.49202 5.25 5.48034 5.25 5.46869C5.25 5.45705 5.25 5.44544 5.25 5.43387C5.25 5.42229 5.25 5.41076 5.25 5.39925C5.25 5.38775 5.25 5.37628 5.25 5.36484C5.25 5.35341 5.25 5.34201 5.25 5.33065C5.25 5.31928 5.25 5.30796 5.25 5.29666C5.25 5.28537 5.25 5.27411 5.25 5.26289C5.25 5.25167 5.25 5.24048 5.25 5.22933C5.25 5.21818 5.25 5.20707 5.25 5.19599C5.25 5.18491 5.25 5.17387 5.25 5.16286C5.25 5.15185 5.25 5.14088 5.25 5.12995C5.25 5.11901 5.25 5.10811 5.25 5.09725C5.25 5.08639 5.25 5.07557 5.25 5.06478C5.25 5.05399 5.25 5.04323 5.25 5.03252C5.25 5.0218 5.25 5.01112 5.25 5.00048C5.25 4.98983 5.25 4.97923 5.25 4.96866C5.25 4.95809 5.25 4.94755 5.25 4.93706C5.25 4.92656 5.25 4.9161 5.25 4.90568C5.25 4.89526 5.25 4.88488 5.25 4.87453C5.25 4.86418 5.25 4.85387 5.25 4.8436C5.25 4.83333 5.25 4.82309 5.25 4.81289C5.25 4.8027 5.25 4.79254 5.25 4.78242C5.25 4.77229 5.25 4.76221 5.25 4.75216C5.25 4.74212 5.25 4.73211 5.25 4.72214C5.25 4.71217 5.25 4.70223 5.25 4.69234C5.25 4.68244 5.25 4.67259 5.25 4.66277C5.25 4.65295 5.25 4.64317 5.25 4.63343C5.25 4.62369 5.25 4.61399 5.25 4.60432C5.25 4.59466 5.25 4.58503 5.25 4.57544C5.25 4.56586 5.25 4.55631 5.25 4.5468C5.25 4.53729 5.25 4.52782 5.25 4.51838C5.25 4.50895 5.25 4.49956 5.25 4.49021C5.25 4.48085 5.25 4.47154 5.25 4.46226C5.25 4.45299 5.25 4.44375 5.25 4.43456C5.25 4.42536 5.25 4.4162 5.25 4.40709C5.25 4.39797 5.25 4.38889 5.25 4.37985C5.25 4.37081 5.25 4.36181 5.25 4.35286C5.25 4.3439 5.25 4.33498 5.25 4.3261C5.25 4.31722 5.25 4.30838 5.25 4.29958C5.25 4.29078 5.25 4.28202 5.25 4.27331C5.25 4.26459 5.25 4.25591 5.25 4.24727C5.25 4.23863 5.25 4.23004 5.25 4.22148C5.25 4.21292 5.25 4.20441 5.25 4.19593C5.25 4.18746 5.25 4.17902 5.25 4.17063C5.25 4.16224 5.25 4.15388 5.25 4.14557C5.25 4.13726 5.25 4.12899 5.25 4.12076C5.25 4.11253 5.25 4.10434 5.25 4.09619C5.25 4.08804 5.25 4.07994 5.25 4.07187C5.25 4.06381 5.25 4.05578 5.25 4.0478C5.25 4.03982 5.25 4.03188 5.25 4.02398C5.25 4.01608 5.25 4.00822 5.25 4.00041C5.25 3.99259 5.25 3.98482 5.25 3.97709C5.25 3.96936 5.25 3.96167 5.25 3.95402C5.25 3.94637 5.25 3.93877 5.25 3.9312C5.25 3.92364 5.25 3.91612 5.25 3.90864C5.25 3.90117 5.25 3.89373 5.25 3.88634C5.25 3.87894 5.25 3.87159 5.25 3.86428C5.25 3.85698 5.25 3.84971 5.25 3.84249C5.25 3.83526 5.25 3.82808 5.25 3.82095C5.25 3.81381 5.25 3.80672 5.25 3.79967C5.25 3.79262 5.25 3.78561 5.25 3.77864C5.25 3.77168 5.25 3.76476 5.25 3.75788C5.25 3.751 5.25 3.74417 5.25 3.73738C5.25 3.73059 5.25 3.72384 5.25 3.71714C5.25 3.71043 5.25 3.70377 5.25 3.69716C5.25 3.69054 5.25 3.68397 5.25 3.67744C5.25 3.67091 5.25 3.66443 5.25 3.65799C5.25 3.65155 5.25 3.64515 5.25 3.6388C5.25 3.63245 5.25 3.62614 5.25 3.61988C5.25 3.61361 5.25 3.60739 5.25 3.60122C5.25 3.59505 5.25 3.58891 5.25 3.58283C5.25 3.57675 5.25 3.57071 5.25 3.56471C5.25 3.55871 5.25 3.55276 5.25 3.54686C5.25 3.54095 5.25 3.53509 5.25 3.52927C5.25 3.52346 5.25 3.51769 5.25 3.51196C5.25 3.50624 5.25 3.50056 5.25 3.49492C5.25 3.48929 5.25 3.4837 5.25 3.47816C5.25 3.47261 5.25 3.46711 5.25 3.46166C5.25 3.45621 5.25 3.4508 5.25 3.44544C5.25 3.44008 5.25 3.43476 5.25 3.42949C5.25 3.42422 5.25 3.419 5.25 3.41382C5.25 3.40864 5.25 3.40351 5.25 3.39843C5.25 3.39334 5.25 3.3883 5.25 3.38331C5.25 3.37832 5.25 3.37337 5.25 3.36847C5.25 3.36357 5.25 3.35872 5.25 3.35391C5.25 3.34911 5.25 3.34435 5.25 3.33963C5.25 3.33492 5.25 3.33026 5.25 3.32564C5.25 3.32102 5.25 3.31644 5.25 3.31192C5.25 3.30739 5.25 3.30292 5.25 3.29848C5.25 3.29405 5.25 3.28967 5.25 3.28533C5.25 3.281 5.25 3.27671 5.25 3.27247C5.25 3.26823 5.25 3.26403 5.25 3.25989C5.25 3.25574 5.25 3.25164 5.25 3.24759C5.25 3.24354 5.25 3.23954 5.25 3.23558C5.25 3.23163 5.25 3.22772 5.25 3.22386C5.25 3.22 5.25 3.21619 5.25 3.21243C5.25 3.20866 5.25 3.20495 5.25 3.20128C5.25 3.19762 5.25 3.194 5.25 3.19043C5.25 3.18686 5.25 3.18334 5.25 3.17987C5.25 3.1764 5.25 3.17297 5.25 3.1696C5.25 3.16622 5.25 3.1629 5.25 3.15962C5.25 3.15634 5.25 3.15312 5.25 3.14994C5.25 3.14676 5.25 3.14363 5.25 3.14055C5.25 3.13747 5.25 3.13444 5.25 3.13145C5.25 3.12847 5.25 3.12554 5.25 3.12265C5.25 3.11977 5.25 3.11694 5.25 3.11415C5.25 3.11137 5.25 3.10863 5.25 3.10595C5.25 3.10327 5.25 3.10063 5.25 3.09805C5.25 3.09546 5.25 3.09293 5.25 3.09044C5.25 3.08796 5.25 3.08552 5.25 3.08314C5.25 3.08075 5.25 3.07842 5.25 3.07613C5.25 3.07385 5.25 3.07162 5.25 3.06943C5.25 3.06725 5.25 3.06511 5.25 3.06303C5.25 3.06095 5.25 3.05892 5.25 3.05694C5.25 3.05496 5.25 3.05303 5.25 3.05115C5.25 3.04927 5.25 3.04744 5.25 3.04566C5.25 3.04389 5.25 3.04216 5.25 3.04049C5.25 3.03881 5.25 3.03719 5.25 3.03562C5.25 3.03404 5.25 3.03252 5.25 3.03105C5.25 3.02958 5.25 3.02817 5.25 3.0268C5.25 3.02543 5.25 3.02412 5.25 3.02286C5.25 3.02159 5.25 3.02038 5.25 3.01922C5.25 3.01806 5.25 3.01695 5.25 3.0159C5.25 3.01484 5.25 3.01384 5.25 3.01289C5.25 3.01194 5.25 3.01104 5.25 3.01019C5.25 3.00935 5.25 3.00855 5.25 3.00781C5.25 3.00707 5.25 3.00638 5.25 3.00574C5.25 3.00511 5.25 3.00452 5.25 3.00399C5.25 3.00346 5.25 3.00298 5.25 3.00256C5.25 3.00213 5.25 3.00176 5.25 3.00144C5.25 3.00112 5.25 3.00085 5.25 3.00064C5.25 3.00043 5.25 3.00027 5.25 3.00016C5.25 3.00005 5.25 3 4.5 3C3.75 3 3.75 3.00005 3.75 3.00016C3.75 3.00027 3.75 3.00043 3.75 3.00064C3.75 3.00085 3.75 3.00112 3.75 3.00144C3.75 3.00176 3.75 3.00213 3.75 3.00256C3.75 3.00298 3.75 3.00346 3.75 3.00399C3.75 3.00452 3.75 3.00511 3.75 3.00574C3.75 3.00638 3.75 3.00707 3.75 3.00781C3.75 3.00855 3.75 3.00935 3.75 3.01019C3.75 3.01104 3.75 3.01194 3.75 3.01289C3.75 3.01384 3.75 3.01484 3.75 3.0159C3.75 3.01695 3.75 3.01806 3.75 3.01922C3.75 3.02038 3.75 3.02159 3.75 3.02286C3.75 3.02412 3.75 3.02543 3.75 3.0268C3.75 3.02817 3.75 3.02958 3.75 3.03105C3.75 3.03252 3.75 3.03404 3.75 3.03562C3.75 3.03719 3.75 3.03881 3.75 3.04049C3.75 3.04216 3.75 3.04389 3.75 3.04566C3.75 3.04744 3.75 3.04927 3.75 3.05115C3.75 3.05303 3.75 3.05496 3.75 3.05694C3.75 3.05892 3.75 3.06095 3.75 3.06303C3.75 3.06511 3.75 3.06725 3.75 3.06943C3.75 3.07162 3.75 3.07385 3.75 3.07613C3.75 3.07842 3.75 3.08075 3.75 3.08314C3.75 3.08552 3.75 3.08796 3.75 3.09044C3.75 3.09293 3.75 3.09546 3.75 3.09805C3.75 3.10063 3.75 3.10327 3.75 3.10595C3.75 3.10863 3.75 3.11137 3.75 3.11415C3.75 3.11694 3.75 3.11977 3.75 3.12265C3.75 3.12554 3.75 3.12847 3.75 3.13145C3.75 3.13444 3.75 3.13747 3.75 3.14055C3.75 3.14363 3.75 3.14676 3.75 3.14994C3.75 3.15312 3.75 3.15634 3.75 3.15962C3.75 3.1629 3.75 3.16622 3.75 3.1696C3.75 3.17297 3.75 3.1764 3.75 3.17987C3.75 3.18334 3.75 3.18686 3.75 3.19043C3.75 3.194 3.75 3.19762 3.75 3.20128C3.75 3.20495 3.75 3.20866 3.75 3.21243C3.75 3.21619 3.75 3.22 3.75 3.22386C3.75 3.22772 3.75 3.23163 3.75 3.23558C3.75 3.23954 3.75 3.24354 3.75 3.24759C3.75 3.25164 3.75 3.25574 3.75 3.25989C3.75 3.26403 3.75 3.26823 3.75 3.27247C3.75 3.27671 3.75 3.281 3.75 3.28533C3.75 3.28967 3.75 3.29405 3.75 3.29848C3.75 3.30292 3.75 3.30739 3.75 3.31192C3.75 3.31644 3.75 3.32102 3.75 3.32564C3.75 3.33026 3.75 3.33492 3.75 3.33963C3.75 3.34435 3.75 3.34911 3.75 3.35391C3.75 3.35872 3.75 3.36357 3.75 3.36847C3.75 3.37337 3.75 3.37832 3.75 3.38331C3.75 3.3883 3.75 3.39334 3.75 3.39843C3.75 3.40351 3.75 3.40864 3.75 3.41382C3.75 3.419 3.75 3.42422 3.75 3.42949C3.75 3.43476 3.75 3.44008 3.75 3.44544C3.75 3.4508 3.75 3.45621 3.75 3.46166C3.75 3.46711 3.75 3.47261 3.75 3.47816C3.75 3.4837 3.75 3.48929 3.75 3.49492C3.75 3.50056 3.75 3.50624 3.75 3.51196C3.75 3.51769 3.75 3.52346 3.75 3.52927C3.75 3.53509 3.75 3.54095 3.75 3.54686C3.75 3.55276 3.75 3.55871 3.75 3.56471C3.75 3.57071 3.75 3.57675 3.75 3.58283C3.75 3.58891 3.75 3.59505 3.75 3.60122C3.75 3.60739 3.75 3.61361 3.75 3.61988C3.75 3.62614 3.75 3.63245 3.75 3.6388C3.75 3.64515 3.75 3.65155 3.75 3.65799C3.75 3.66443 3.75 3.67091 3.75 3.67744C3.75 3.68397 3.75 3.69054 3.75 3.69716C3.75 3.70377 3.75 3.71043 3.75 3.71714C3.75 3.72384 3.75 3.73059 3.75 3.73738C3.75 3.74417 3.75 3.751 3.75 3.75788C3.75 3.76476 3.75 3.77168 3.75 3.77864C3.75 3.78561 3.75 3.79262 3.75 3.79967C3.75 3.80672 3.75 3.81381 3.75 3.82095C3.75 3.82808 3.75 3.83526 3.75 3.84249C3.75 3.84971 3.75 3.85698 3.75 3.86428C3.75 3.87159 3.75 3.87894 3.75 3.88634C3.75 3.89373 3.75 3.90117 3.75 3.90864C3.75 3.91612 3.75 3.92364 3.75 3.9312C3.75 3.93877 3.75 3.94637 3.75 3.95402C3.75 3.96167 3.75 3.96936 3.75 3.97709C3.75 3.98482 3.75 3.99259 3.75 4.00041C3.75 4.00822 3.75 4.01608 3.75 4.02398C3.75 4.03188 3.75 4.03982 3.75 4.0478C3.75 4.05578 3.75 4.06381 3.75 4.07187C3.75 4.07994 3.75 4.08804 3.75 4.09619C3.75 4.10434 3.75 4.11253 3.75 4.12076C3.75 4.12899 3.75 4.13726 3.75 4.14557C3.75 4.15388 3.75 4.16224 3.75 4.17063C3.75 4.17902 3.75 4.18746 3.75 4.19593C3.75 4.20441 3.75 4.21292 3.75 4.22148C3.75 4.23004 3.75 4.23863 3.75 4.24727C3.75 4.25591 3.75 4.26459 3.75 4.27331C3.75 4.28202 3.75 4.29078 3.75 4.29958C3.75 4.30838 3.75 4.31722 3.75 4.3261C3.75 4.33498 3.75 4.3439 3.75 4.35286C3.75 4.36181 3.75 4.37081 3.75 4.37985C3.75 4.38889 3.75 4.39797 3.75 4.40709C3.75 4.4162 3.75 4.42536 3.75 4.43456C3.75 4.44375 3.75 4.45299 3.75 4.46226C3.75 4.47154 3.75 4.48085 3.75 4.49021C3.75 4.49956 3.75 4.50895 3.75 4.51838C3.75 4.52782 3.75 4.53729 3.75 4.5468C3.75 4.55631 3.75 4.56586 3.75 4.57544C3.75 4.58503 3.75 4.59466 3.75 4.60432C3.75 4.61399 3.75 4.62369 3.75 4.63343C3.75 4.64317 3.75 4.65295 3.75 4.66277C3.75 4.67259 3.75 4.68244 3.75 4.69234C3.75 4.70223 3.75 4.71217 3.75 4.72214C3.75 4.73211 3.75 4.74212 3.75 4.75216C3.75 4.76221 3.75 4.77229 3.75 4.78242C3.75 4.79254 3.75 4.8027 3.75 4.81289C3.75 4.82309 3.75 4.83333 3.75 4.8436C3.75 4.85387 3.75 4.86418 3.75 4.87453C3.75 4.88488 3.75 4.89526 3.75 4.90568C3.75 4.9161 3.75 4.92656 3.75 4.93706C3.75 4.94755 3.75 4.95809 3.75 4.96866C3.75 4.97923 3.75 4.98983 3.75 5.00048C3.75 5.01112 3.75 5.0218 3.75 5.03252C3.75 5.04323 3.75 5.05399 3.75 5.06478C3.75 5.07557 3.75 5.08639 3.75 5.09725C3.75 5.10811 3.75 5.11901 3.75 5.12995C3.75 5.14088 3.75 5.15185 3.75 5.16286C3.75 5.17387 3.75 5.18491 3.75 5.19599C3.75 5.20707 3.75 5.21818 3.75 5.22933C3.75 5.24048 3.75 5.25167 3.75 5.26289C3.75 5.27411 3.75 5.28537 3.75 5.29666C3.75 5.30796 3.75 5.31928 3.75 5.33065C3.75 5.34201 3.75 5.35341 3.75 5.36484C3.75 5.37628 3.75 5.38775 3.75 5.39925C3.75 5.41076 3.75 5.42229 3.75 5.43387C3.75 5.44544 3.75 5.45705 3.75 5.46869C3.75 5.48034 3.75 5.49202 3.75 5.50373C3.75 5.51544 3.75 5.52719 3.75 5.53897C3.75 5.55075 3.75 5.56257 3.75 5.57442C3.75 5.58627 3.75 5.59816 3.75 5.61008C3.75 5.622 3.75 5.63395 3.75 5.64594C3.75 5.65792 3.75 5.66995 3.75 5.682C3.75 5.69406 3.75 5.70615 3.75 5.71827C3.75 5.73039 3.75 5.74255 3.75 5.75474C3.75 5.76693 3.75 5.77915 3.75 5.79141C3.75 5.80367 3.75 5.81596 3.75 5.82828C3.75 5.84061 3.75 5.85296 3.75 5.86535C3.75 5.87775 3.75 5.89017 3.75 5.90263C3.75 5.91508 3.75 5.92757 3.75 5.9401C3.75 5.95262 3.75 5.96517 3.75 5.97776C3.75 5.99035 3.75 6.00297 3.75 6.01563C3.75 6.02828 3.75 6.04097 3.75 6.05368C3.75 6.0664 3.75 6.07915 3.75 6.09194C3.75 6.10472 3.75 6.11754 3.75 6.13039C3.75 6.14323 3.75 6.15611 3.75 6.16903C3.75 6.18194 3.75 6.19488 3.75 6.20786C3.75 6.22084 3.75 6.23384 3.75 6.24689C3.75 6.25992 3.75 6.273 3.75 6.2861C3.75 6.2992 3.75 6.31234 3.75 6.3255C3.75 6.33867 3.75 6.35187 3.75 6.3651C3.75 6.37833 3.75 6.39159 3.75 6.40488C3.75 6.41817 3.75 6.43149 3.75 6.44485C3.75 6.4582 3.75 6.47159 3.75 6.485C3.75 6.49842 3.75 6.51186 3.75 6.52534C3.75 6.53882 3.75 6.55233 3.75 6.56587C3.75 6.5794 3.75 6.59298 3.75 6.60658C3.75 6.62017 3.75 6.63381 3.75 6.64747C3.75 6.66113 3.75 6.67482 3.75 6.68854C3.75 6.70226 3.75 6.71601 3.75 6.72979C3.75 6.74358 3.75 6.75739 3.75 6.77123C3.75 6.78507 3.75 6.79894 3.75 6.81284C3.75 6.82674 3.75 6.84068 3.75 6.85464C3.75 6.8686 3.75 6.88259 3.75 6.89661C3.75 6.91063 3.75 6.92467 3.75 6.93875C3.75 6.95283 3.75 6.96694 3.75 6.98108C3.75 6.99521 3.75 7.00938 3.75 7.02357C3.75 7.03777 3.75 7.052 3.75 7.06625C3.75 7.0805 3.75 7.09478 3.75 7.10909C3.75 7.12341 3.75 7.13774 3.75 7.15211C3.75 7.16648 3.75 7.18088 3.75 7.1953C3.75 7.20973 3.75 7.22418 3.75 7.23867C3.75 7.25315 3.75 7.26766 3.75 7.2822C3.75 7.29674 3.75 7.3113 3.75 7.3259C3.75 7.3405 3.75 7.35512 3.75 7.36977C3.75 7.38442 3.75 7.3991 3.75 7.41381C3.75 7.42851 3.75 7.44325 3.75 7.45801C3.75 7.47277 3.75 7.48756 3.75 7.50238C3.75 7.5172 3.75 7.53204 3.75 7.54692C3.75 7.56179 3.75 7.57669 3.75 7.59161C3.75 7.60654 3.75 7.62149 3.75 7.63647C3.75 7.65146 3.75 7.66646 3.75 7.6815C3.75 7.69654 3.75 7.7116 3.75 7.72668C3.75 7.74177 3.75 7.75689 3.75 7.77203C3.75 7.78717 3.75 7.80234 3.75 7.81754C3.75 7.83273 3.75 7.84796 3.75 7.8632C3.75 7.87845 3.75 7.89373 3.75 7.90903C3.75 7.92433 3.75 7.93966 3.75 7.95501C3.75 7.97036 3.75 7.98574 3.75 8.00115C3.75 8.01655 3.75 8.03198 3.75 8.04744C3.75 8.06289 3.75 8.07838 3.75 8.09389C3.75 8.10939 3.75 8.12493 3.75 8.14049C3.75 8.15605 3.75 8.17163 3.75 8.18724C3.75 8.20285 3.75 8.21849 3.75 8.23415C3.75 8.24981 3.75 8.2655 3.75 8.28121C3.75 8.29692 3.75 8.31265 3.75 8.32842C3.75 8.34418 3.75 8.35996 3.75 8.37577C3.75 8.39159 3.75 8.40742 3.75 8.42328C3.75 8.43914 3.75 8.45503 3.75 8.47094C3.75 8.48685 3.75 8.50278 3.75 8.51874C3.75 8.5347 3.75 8.55068 3.75 8.56669C3.75 8.5827 3.75 8.59873 3.75 8.61478C3.75 8.63084 3.75 8.64692 3.75 8.66302C3.75 8.67912 3.75 8.69525 3.75 8.7114C3.75 8.72755 3.75 8.74373 3.75 8.75993C3.75 8.77612 3.75 8.79235 3.75 8.80859C3.75 8.82484 3.75 8.84111 3.75 8.8574C3.75 8.87369 3.75 8.89001 3.75 8.90635C3.75 8.92269 3.75 8.93905 3.75 8.95544C3.75 8.97182 3.75 8.98823 3.75 9.00466C3.75 9.0211 3.75 9.03755 3.75 9.05403C3.75 9.0705 3.75 9.087 3.75 9.10353C3.75 9.12005 3.75 9.1366 3.75 9.15316C3.75 9.16973 3.75 9.18632 3.75 9.20294C3.75 9.21955 3.75 9.23619 3.75 9.25284C3.75 9.2695 3.75 9.28618 3.75 9.30288C3.75 9.31958 3.75 9.33631 3.75 9.35305C3.75 9.3698 3.75 9.38657 3.75 9.40336C3.75 9.42015 3.75 9.43696 3.75 9.45379C3.75 9.47063 3.75 9.48748 3.75 9.50436C3.75 9.52123 3.75 9.53813 3.75 9.55505C3.75 9.57197 3.75 9.58891 3.75 9.60588C3.75 9.62284 3.75 9.63982 3.75 9.65682C3.75 9.67383 3.75 9.69086 3.75 9.7079C3.75 9.72495 3.75 9.74202 3.75 9.7591C3.75 9.77619 3.75 9.7933 3.75 9.81043C3.75 9.82756 3.75 9.84471 3.75 9.86188C3.75 9.87905 3.75 9.89624 3.75 9.91346C3.75 9.93067 3.75 9.9479 3.75 9.96515C3.75 9.98241 3.75 9.99968 3.75 10.017C3.75 10.0343 3.75 10.0516 3.75 10.0689C3.75 10.0862 3.75 10.1036 3.75 10.121C3.75 10.1383 3.75 10.1557 3.75 10.1731C3.75 10.1906 3.75 10.208 3.75 10.2254C3.75 10.2429 3.75 10.2604 3.75 10.2779C3.75 10.2953 3.75 10.3129 3.75 10.3304C3.75 10.3479 3.75 10.3655 3.75 10.383C3.75 10.4006 3.75 10.4182 3.75 10.4358C3.75 10.4534 3.75 10.471 3.75 10.4887C3.75 10.5063 3.75 10.524 3.75 10.5417C3.75 10.5593 3.75 10.577 3.75 10.5948C3.75 10.6125 3.75 10.6302 3.75 10.648C3.75 10.6657 3.75 10.6835 3.75 10.7013C3.75 10.7191 3.75 10.7369 3.75 10.7547C3.75 10.7725 3.75 10.7904 3.75 10.8083C3.75 10.8261 3.75 10.844 3.75 10.8619C3.75 10.8798 3.75 10.8977 3.75 10.9157C3.75 10.9336 3.75 10.9515 3.75 10.9695C3.75 10.9875 3.75 11.0055 3.75 11.0235C3.75 11.0415 3.75 11.0595 3.75 11.0776C3.75 11.0956 3.75 11.1137 3.75 11.1317C3.75 11.1498 3.75 11.1679 3.75 11.186C3.75 11.2041 3.75 11.2222 3.75 11.2404C3.75 11.2585 3.75 11.2767 3.75 11.2949C3.75 11.313 3.75 11.3312 3.75 11.3494C3.75 11.3677 3.75 11.3859 3.75 11.4041C3.75 11.4224 3.75 11.4406 3.75 11.4589C3.75 11.4772 3.75 11.4955 3.75 11.5138C3.75 11.5321 3.75 11.5504 3.75 11.5687C3.75 11.5871 3.75 11.6054 3.75 11.6238C3.75 11.6422 3.75 11.6606 3.75 11.679C3.75 11.6974 3.75 11.7158 3.75 11.7342C3.75 11.7527 3.75 11.7711 3.75 11.7896C3.75 11.8081 3.75 11.8265 3.75 11.845C3.75 11.8635 3.75 11.882 3.75 11.9006C3.75 11.9191 3.75 11.9376 3.75 11.9562C3.75 11.9748 3.75 11.9933 3.75 12.0119C3.75 12.0305 3.75 12.0491 3.75 12.0677C3.75 12.0863 3.75 12.105 3.75 12.1236C3.75 12.1423 3.75 12.1609 3.75 12.1796C3.75 12.1983 3.75 12.217 3.75 12.2357C3.75 12.2544 3.75 12.2731 3.75 12.2918C3.75 12.3105 3.75 12.3293 3.75 12.3481C3.75 12.3668 3.75 12.3856 3.75 12.4044C3.75 12.4232 3.75 12.442 3.75 12.4608C3.75 12.4796 3.75 12.4984 3.75 12.5173C3.75 12.5361 3.75 12.555 3.75 12.5738C3.75 12.5927 3.75 12.6116 3.75 12.6305C3.75 12.6494 3.75 12.6683 3.75 12.6872C3.75 12.7061 3.75 12.7251 3.75 12.744C3.75 12.763 3.75 12.7819 3.75 12.8009C3.75 12.8199 3.75 12.8389 3.75 12.8579C3.75 12.8769 3.75 12.8959 3.75 12.9149C3.75 12.9339 3.75 12.953 3.75 12.972C3.75 12.9911 3.75 13.0102 3.75 13.0292C3.75 13.0483 3.75 13.0674 3.75 13.0865C3.75 13.1056 3.75 13.1247 3.75 13.1438C3.75 13.163 3.75 13.1821 3.75 13.2012C3.75 13.2204 3.75 13.2396 3.75 13.2587C3.75 13.2779 3.75 13.2971 3.75 13.3163C3.75 13.3355 3.75 13.3547 3.75 13.3739C3.75 13.3931 3.75 13.4123 3.75 13.4316C3.75 13.4508 3.75 13.4701 3.75 13.4893C3.75 13.5086 3.75 13.5279 3.75 13.5472C3.75 13.5665 3.75 13.5858 3.75 13.6051C3.75 13.6244 3.75 13.6437 3.75 13.663C3.75 13.6823 3.75 13.7017 3.75 13.721C3.75 13.7404 3.75 13.7597 3.75 13.7791C3.75 13.7985 3.75 13.8179 3.75 13.8373C3.75 13.8567 3.75 13.8761 3.75 13.8955C3.75 13.9149 3.75 13.9343 3.75 13.9537C3.75 13.9732 3.75 13.9926 3.75 14.0121C3.75 14.0315 3.75 14.051 3.75 14.0705C3.75 14.0899 3.75 14.1094 3.75 14.1289C3.75 14.1484 3.75 14.1679 3.75 14.1874C3.75 14.2069 3.75 14.2265 3.75 14.246C3.75 14.2655 3.75 14.2851 3.75 14.3046C3.75 14.3242 3.75 14.3437 3.75 14.3633C3.75 14.3828 3.75 14.4024 3.75 14.422C3.75 14.4416 3.75 14.4612 3.75 14.4808C3.75 14.5004 3.75 14.52 3.75 14.5396C3.75 14.5592 3.75 14.5789 3.75 14.5985C3.75 14.6181 3.75 14.6378 3.75 14.6574C3.75 14.6771 3.75 14.6968 3.75 14.7164C3.75 14.7361 3.75 14.7558 3.75 14.7755C3.75 14.7951 3.75 14.8148 3.75 14.8345C3.75 14.8542 3.75 14.874 3.75 14.8937C3.75 14.9134 3.75 14.9331 3.75 14.9529C3.75 14.9726 3.75 14.9923 3.75 15.0121C3.75 15.0318 3.75 15.0516 3.75 15.0713C3.75 15.0911 3.75 15.1109 3.75 15.1307C3.75 15.1504 3.75 15.1702 3.75 15.19C3.75 15.2098 3.75 15.2296 3.75 15.2494C3.75 15.2692 3.75 15.289 3.75 15.3089C3.75 15.3287 3.75 15.3485 3.75 15.3683C3.75 15.3882 3.75 15.408 3.75 15.4279C3.75 15.4477 3.75 15.4676 3.75 15.4874C3.75 15.5073 3.75 15.5271 3.75 15.547C3.75 15.5669 3.75 15.5868 3.75 15.6066C3.75 15.6265 3.75 15.6464 3.75 15.6663C3.75 15.6862 3.75 15.7061 3.75 15.726C3.75 15.7459 3.75 15.7658 3.75 15.7858C3.75 15.8057 3.75 15.8256 3.75 15.8455C3.75 15.8655 3.75 15.8854 3.75 15.9053C3.75 15.9253 3.75 15.9452 3.75 15.9652C3.75 15.9851 3.75 16.0051 3.75 16.025C3.75 16.045 3.75 16.065 3.75 16.0849C3.75 16.1049 3.75 16.1249 3.75 16.1449C3.75 16.1649 3.75 16.1848 3.75 16.2048C3.75 16.2248 3.75 16.2448 3.75 16.2648C3.75 16.2848 3.75 16.3048 3.75 16.3248C3.75 16.3448 3.75 16.3649 3.75 16.3849C3.75 16.4049 3.75 16.4249 3.75 16.4449C3.75 16.465 3.75 16.485 3.75 16.505C3.75 16.5251 3.75 16.5451 3.75 16.5651C3.75 16.5852 3.75 16.6052 3.75 16.6253C3.75 16.6453 3.75 16.6654 3.75 16.6854C3.75 16.7055 3.75 16.7256 3.75 16.7456C3.75 16.7657 3.75 16.7857 3.75 16.8058C3.75 16.8259 3.75 16.846 3.75 16.866C3.75 16.8861 3.75 16.9062 3.75 16.9263C3.75 16.9464 3.75 16.9664 3.75 16.9865C3.75 17.0066 3.75 17.0267 3.75 17.0468C3.75 17.0669 3.75 17.087 3.75 17.1071C3.75 17.1272 3.75 17.1473 3.75 17.1674C3.75 17.1875 3.75 17.2076 3.75 17.2277C3.75 17.2478 3.75 17.2679 3.75 17.288C3.75 17.3081 3.75 17.3283 3.75 17.3484C3.75 17.3685 3.75 17.3886 3.75 17.4087C3.75 17.4289 3.75 17.449 3.75 17.4691C3.75 17.4892 3.75 17.5093 3.75 17.5295C3.75 17.5496 3.75 17.5697 3.75 17.5899C3.75 17.61 3.75 17.6301 3.75 17.6502C3.75 17.6704 3.75 17.6905 3.75 17.7106C3.75 17.7308 3.75 17.7509 3.75 17.7711C3.75 17.7912 3.75 17.8113 3.75 17.8315C3.75 17.8516 3.75 17.8717 3.75 17.8919C3.75 17.912 3.75 17.9322 3.75 17.9523C3.75 17.9724 3.75 17.9926 3.75 18.0127C3.75 18.0329 3.75 18.053 3.75 18.0731C3.75 18.0933 3.75 18.1134 3.75 18.1336C3.75 18.1537 3.75 18.1739 3.75 18.194C3.75 18.2141 3.75 18.2343 3.75 18.2544C3.75 18.2746 3.75 18.2947 3.75 18.3149C3.75 18.335 3.75 18.3551 3.75 18.3753C3.75 18.3954 3.75 18.4156 3.75 18.4357C3.75 18.4558 3.75 18.476 3.75 18.4961C3.75 18.5163 3.75 18.5364 3.75 18.5565C3.75 18.5767 3.75 18.5968 3.75 18.6169C3.75 18.6371 3.75 18.6572 3.75 18.6773C3.75 18.6975 3.75 18.7176 3.75 18.7377C3.75 18.7579 3.75 18.778 3.75 18.7981C3.75 18.8183 3.75 18.8384 3.75 18.8585C3.75 18.8786 3.75 18.8988 3.75 18.9189C3.75 18.939 3.75 18.9591 3.75 18.9792C3.75 18.9993 3.75 19.0195 3.75 19.0396C3.75 19.0597 3.75 19.0798 3.75 19.0999C3.75 19.12 3.75 19.1401 3.75 19.1602C3.75 19.1803 3.75 19.2004 3.75 19.2205C3.75 19.2406 3.75 19.2607 3.75 19.2808C3.75 19.3009 3.75 19.321 3.75 19.3411C3.75 19.3612 3.75 19.3813 3.75 19.4014C3.75 19.4215 3.75 19.4415 3.75 19.4616C3.75 19.4817 3.75 19.5018 3.75 19.5218C3.75 19.5419 3.75 19.562 3.75 19.582C3.75 19.6021 3.75 19.6222 3.75 19.6422C3.75 19.6623 3.75 19.6823 3.75 19.7024C3.75 19.7224 3.75 19.7425 3.75 19.7625C3.75 19.7826 3.75 19.8026 3.75 19.8227C3.75 19.8427 3.75 19.8627 3.75 19.8828C3.75 19.9028 3.75 19.9228 3.75 19.9428C3.75 19.9629 3.75 19.9829 3.75 20.0029C3.75 20.0229 3.75 20.0429 3.75 20.0629C3.75 20.0829 3.75 20.1029 3.75 20.1229C3.75 20.1429 3.75 20.1629 3.75 20.1829C3.75 20.2029 3.75 20.2228 3.75 20.2428C3.75 20.2628 3.75 20.2828 3.75 20.3027C3.75 20.3227 3.75 20.3427 3.75 20.3626C3.75 20.3826 3.75 20.4025 3.75 20.4225C3.75 20.4424 3.75 20.4623 3.75 20.4823C3.75 20.5022 3.75 20.5221 3.75 20.5421C3.75 20.562 3.75 20.5819 3.75 20.6018C3.75 20.6217 3.75 20.6416 3.75 20.6615C3.75 20.6814 3.75 20.7013 3.75 20.7212C3.75 20.7411 3.75 20.761 3.75 20.7809C3.75 20.8007 3.75 20.8206 3.75 20.8405C3.75 20.8603 3.75 20.8802 3.75 20.9C3.75 20.9199 3.75 20.9397 3.75 20.9596C3.75 20.9794 3.75 20.9992 3.75 21.0191C3.75 21.0389 3.75 21.0587 3.75 21.0785C3.75 21.0983 3.75 21.1181 3.75 21.1379C3.75 21.1577 3.75 21.1775 3.75 21.1973C3.75 21.2171 3.75 21.2369 3.75 21.2566C3.75 21.2764 3.75 21.2962 3.75 21.3159C3.75 21.3357 3.75 21.3554 3.75 21.3752C3.75 21.3949 3.75 21.4146 3.75 21.4344C3.75 21.4541 3.75 21.4738 3.75 21.4935C3.75 21.5132 3.75 21.5329 3.75 21.5526C3.75 21.5723 3.75 21.592 3.75 21.6117C3.75 21.6313 3.75 21.651 3.75 21.6707C3.75 21.6903 3.75 21.71 3.75 21.7296C3.75 21.7493 3.75 21.7689 3.75 21.7885C3.75 21.8081 3.75 21.8278 3.75 21.8474C3.75 21.867 3.75 21.8866 3.75 21.9062C3.75 21.9258 3.75 21.9453 3.75 21.9649C3.75 21.9845 3.75 22.0041 3.75 22.0236C3.75 22.0432 3.75 22.0627 3.75 22.0823C3.75 22.1018 3.75 22.1213 3.75 22.1408C3.75 22.1604 3.75 22.1799 3.75 22.1994C3.75 22.2189 3.75 22.2384 3.75 22.2578C3.75 22.2773 3.75 22.2968 3.75 22.3162C3.75 22.3357 3.75 22.3552 3.75 22.3746C3.75 22.394 3.75 22.4135 3.75 22.4329C3.75 22.4523 3.75 22.4717 3.75 22.4911C3.75 22.5105 3.75 22.5299 3.75 22.5493C3.75 22.5687 3.75 22.588 3.75 22.6074C3.75 22.6268 3.75 22.6461 3.75 22.6654C3.75 22.6848 3.75 22.7041 3.75 22.7234C3.75 22.7427 3.75 22.762 3.75 22.7813C3.75 22.8006 3.75 22.8199 3.75 22.8392C3.75 22.8585 3.75 22.8777 3.75 22.897C3.75 22.9162 3.75 22.9354 3.75 22.9547C3.75 22.9739 3.75 22.9931 3.75 23.0123C3.75 23.0315 3.75 23.0507 3.75 23.0699C3.75 23.0891 3.75 23.1082 3.75 23.1274C3.75 23.1466 3.75 23.1657 3.75 23.1848C3.75 23.204 3.75 23.2231 3.75 23.2422C3.75 23.2613 3.75 23.2804 3.75 23.2995C3.75 23.3186 3.75 23.3377 3.75 23.3567C3.75 23.3758 3.75 23.3948 3.75 23.4139C3.75 23.4329 3.75 23.4519 3.75 23.4709C3.75 23.4899 3.75 23.5089 3.75 23.5279C3.75 23.5469 3.75 23.5659 3.75 23.5848C3.75 23.6038 3.75 23.6227 3.75 23.6417C3.75 23.6606 3.75 23.6795 3.75 23.6984C3.75 23.7173 3.75 23.7362 3.75 23.7551C3.75 23.774 3.75 23.7929 3.75 23.8117C3.75 23.8306 3.75 23.8494 3.75 23.8682C3.75 23.887 3.75 23.9059 3.75 23.9247C3.75 23.9435 3.75 23.9622 3.75 23.981C3.75 23.9998 3.75 24.0185 3.75 24.0373C3.75 24.056 3.75 24.0748 3.75 24.0935C3.75 24.1122 3.75 24.1309 3.75 24.1496C3.75 24.1682 3.75 24.1869 3.75 24.2056C3.75 24.2242 3.75 24.2429 3.75 24.2615C3.75 24.2801 3.75 24.2987 3.75 24.3173C3.75 24.3359 3.75 24.3545 3.75 24.3731C3.75 24.3917 3.75 24.4102 3.75 24.4287C3.75 24.4473 3.75 24.4658 3.75 24.4843C3.75 24.5028 3.75 24.5213 3.75 24.5398C3.75 24.5583 3.75 24.5767 3.75 24.5952C3.75 24.6136 3.75 24.6321 3.75 24.6505C3.75 24.6689 3.75 24.6873 3.75 24.7057C3.75 24.724 3.75 24.7424 3.75 24.7608C3.75 24.7791 3.75 24.7975 3.75 24.8158C3.75 24.8341 3.75 24.8524 3.75 24.8707C3.75 24.889 3.75 24.9072 3.75 24.9255C3.75 24.9438 3.75 24.962 3.75 24.9802C3.75 24.9984 3.75 25.0166 3.75 25.0348C3.75 25.053 3.75 25.0712 3.75 25.0893C3.75 25.1075 3.75 25.1256 3.75 25.1438C3.75 25.1619 3.75 25.18 3.75 25.1981C3.75 25.2162 3.75 25.2342 3.75 25.2523C3.75 25.2703 3.75 25.2884 3.75 25.3064C3.75 25.3244 3.75 25.3424 3.75 25.3604C3.75 25.3784 3.75 25.3963 3.75 25.4143C3.75 25.4322 3.75 25.4502 3.75 25.4681C3.75 25.486 3.75 25.5039 3.75 25.5218C3.75 25.5396 3.75 25.5575 3.75 25.5754C3.75 25.5932 3.75 25.611 3.75 25.6288C3.75 25.6466 3.75 25.6644 3.75 25.6822C3.75 25.6999 3.75 25.7177 3.75 25.7354C3.75 25.7532 3.75 25.7709 3.75 25.7886C3.75 25.8063 3.75 25.8239 3.75 25.8416C3.75 25.8593 3.75 25.8769 3.75 25.8945C3.75 25.9121 3.75 25.9297 3.75 25.9473C3.75 25.9649 3.75 25.9825 3.75 26H5.25ZM7.43769 21.5382L3.93769 25.5037L5.06231 26.4963L8.56231 22.5308L7.43769 21.5382ZM1 22.0345C0.425885 22.5171 0.425902 22.5171 0.425929 22.5171C0.425949 22.5171 0.425984 22.5172 0.426025 22.5172C0.426107 22.5173 0.426225 22.5175 0.426377 22.5177C0.426683 22.518 0.427129 22.5186 0.427715 22.5192C0.428886 22.5206 0.430614 22.5227 0.432886 22.5254C0.437429 22.5308 0.444147 22.5388 0.452932 22.5492C0.470502 22.5701 0.496343 22.6007 0.5296 22.6401C0.596111 22.7188 0.692304 22.8325 0.811335 22.9725C1.04933 23.2525 1.37895 23.6384 1.74535 24.0619C2.47329 24.9031 3.36259 25.9113 3.96452 26.5251L5.03548 25.4749C4.47074 24.899 3.61004 23.9245 2.87965 23.0804C2.51688 22.6611 2.19025 22.2787 1.95429 22.0011C1.83634 21.8623 1.74113 21.7498 1.67548 21.6721C1.64265 21.6332 1.61723 21.6031 1.60005 21.5827C1.59146 21.5725 1.58493 21.5647 1.58057 21.5596C1.57839 21.557 1.57676 21.555 1.57568 21.5538C1.57514 21.5531 1.57473 21.5526 1.57447 21.5523C1.57434 21.5522 1.57425 21.5521 1.57419 21.552C1.57416 21.5519 1.57414 21.5519 1.57412 21.5519C1.57412 21.5519 1.57411 21.5519 1 22.0345Z" fill="black"/>
<path d="M4.5 2L5.03548 1.47487L4.47109 0.89936L3.93769 1.5037L4.5 2ZM3.75 25C3.75 25.4142 4.08579 25.75 4.5 25.75C4.91421 25.75 5.25 25.4142 5.25 25H3.75ZM0.437693 5.46922C0.163596 5.77977 0.193149 6.25373 0.503703 6.52782C0.814257 6.80192 1.28821 6.77237 1.56231 6.46181L0.437693 5.46922ZM7.42589 6.44811C7.69241 6.76518 8.16551 6.80616 8.48259 6.53963C8.79966 6.27311 8.84064 5.8 8.57411 5.48293L7.42589 6.44811ZM3.75 2C3.75 2.01754 3.75 2.03511 3.75 2.05269C3.75 2.07027 3.75 2.08787 3.75 2.10549C3.75 2.12311 3.75 2.14075 3.75 2.1584C3.75 2.17606 3.75 2.19374 3.75 2.21143C3.75 2.22912 3.75 2.24684 3.75 2.26457C3.75 2.2823 3.75 2.30005 3.75 2.31782C3.75 2.33559 3.75 2.35337 3.75 2.37118C3.75 2.38899 3.75 2.40681 3.75 2.42465C3.75 2.44249 3.75 2.46035 3.75 2.47823C3.75 2.49611 3.75 2.514 3.75 2.53191C3.75 2.54983 3.75 2.56776 3.75 2.58571C3.75 2.60365 3.75 2.62162 3.75 2.6396C3.75 2.65759 3.75 2.67559 3.75 2.69361C3.75 2.71163 3.75 2.72966 3.75 2.74772C3.75 2.76577 3.75 2.78384 3.75 2.80193C3.75 2.82001 3.75 2.83812 3.75 2.85624C3.75 2.87436 3.75 2.8925 3.75 2.91066C3.75 2.92881 3.75 2.94698 3.75 2.96517C3.75 2.98336 3.75 3.00157 3.75 3.01979C3.75 3.03801 3.75 3.05625 3.75 3.0745C3.75 3.09276 3.75 3.11103 3.75 3.12931C3.75 3.1476 3.75 3.16591 3.75 3.18423C3.75 3.20255 3.75 3.22088 3.75 3.23923C3.75 3.25758 3.75 3.27595 3.75 3.29434C3.75 3.31272 3.75 3.33112 3.75 3.34953C3.75 3.36795 3.75 3.38638 3.75 3.40482C3.75 3.42327 3.75 3.44173 3.75 3.46021C3.75 3.47869 3.75 3.49718 3.75 3.51569C3.75 3.53419 3.75 3.55272 3.75 3.57125C3.75 3.58979 3.75 3.60834 3.75 3.62691C3.75 3.64548 3.75 3.66406 3.75 3.68266C3.75 3.70126 3.75 3.71987 3.75 3.7385C3.75 3.75713 3.75 3.77577 3.75 3.79442C3.75 3.81308 3.75 3.83175 3.75 3.85044C3.75 3.86912 3.75 3.88782 3.75 3.90654C3.75 3.92525 3.75 3.94398 3.75 3.96272C3.75 3.98146 3.75 4.00022 3.75 4.01899C3.75 4.03776 3.75 4.05654 3.75 4.07534C3.75 4.09414 3.75 4.11295 3.75 4.13178C3.75 4.1506 3.75 4.16944 3.75 4.18829C3.75 4.20715 3.75 4.22601 3.75 4.24489C3.75 4.26377 3.75 4.28267 3.75 4.30157C3.75 4.32048 3.75 4.3394 3.75 4.35833C3.75 4.37726 3.75 4.39621 3.75 4.41517C3.75 4.43413 3.75 4.4531 3.75 4.47208C3.75 4.49107 3.75 4.51006 3.75 4.52907C3.75 4.54808 3.75 4.56711 3.75 4.58614C3.75 4.60518 3.75 4.62423 3.75 4.64329C3.75 4.66235 3.75 4.68142 3.75 4.7005C3.75 4.71959 3.75 4.73869 3.75 4.7578C3.75 4.7769 3.75 4.79603 3.75 4.81516C3.75 4.83429 3.75 4.85344 3.75 4.87259C3.75 4.89175 3.75 4.91092 3.75 4.9301C3.75 4.94928 3.75 4.96847 3.75 4.98768C3.75 5.00688 3.75 5.0261 3.75 5.04532C3.75 5.06455 3.75 5.08379 3.75 5.10304C3.75 5.12229 3.75 5.14155 3.75 5.16082C3.75 5.18009 3.75 5.19938 3.75 5.21867C3.75 5.23796 3.75 5.25727 3.75 5.27658C3.75 5.2959 3.75 5.31523 3.75 5.33456C3.75 5.3539 3.75 5.37325 3.75 5.39261C3.75 5.41197 3.75 5.43133 3.75 5.45071C3.75 5.47009 3.75 5.48948 3.75 5.50888C3.75 5.52828 3.75 5.54769 3.75 5.56711C3.75 5.58654 3.75 5.60597 3.75 5.62541C3.75 5.64485 3.75 5.6643 3.75 5.68376C3.75 5.70322 3.75 5.72269 3.75 5.74217C3.75 5.76165 3.75 5.78114 3.75 5.80064C3.75 5.82014 3.75 5.83965 3.75 5.85916C3.75 5.87868 3.75 5.89821 3.75 5.91775C3.75 5.93728 3.75 5.95683 3.75 5.97639C3.75 5.99594 3.75 6.01551 3.75 6.03508C3.75 6.05465 3.75 6.07423 3.75 6.09383C3.75 6.11342 3.75 6.13302 3.75 6.15263C3.75 6.17224 3.75 6.19185 3.75 6.21148C3.75 6.2311 3.75 6.25074 3.75 6.27038C3.75 6.29003 3.75 6.30968 3.75 6.32934C3.75 6.349 3.75 6.36866 3.75 6.38834C3.75 6.40802 3.75 6.4277 3.75 6.44739C3.75 6.46709 3.75 6.48679 3.75 6.50649C3.75 6.5262 3.75 6.54592 3.75 6.56564C3.75 6.58537 3.75 6.6051 3.75 6.62484C3.75 6.64458 3.75 6.66432 3.75 6.68408C3.75 6.70383 3.75 6.72359 3.75 6.74336C3.75 6.76313 3.75 6.78291 3.75 6.80269C3.75 6.82247 3.75 6.84226 3.75 6.86206C3.75 6.88186 3.75 6.90166 3.75 6.92147C3.75 6.94128 3.75 6.9611 3.75 6.98093C3.75 7.00075 3.75 7.02058 3.75 7.04042C3.75 7.06026 3.75 7.0801 3.75 7.09995C3.75 7.11981 3.75 7.13966 3.75 7.15953C3.75 7.17939 3.75 7.19926 3.75 7.21914C3.75 7.23901 3.75 7.2589 3.75 7.27878C3.75 7.29867 3.75 7.31857 3.75 7.33847C3.75 7.35837 3.75 7.37827 3.75 7.39818C3.75 7.4181 3.75 7.43801 3.75 7.45794C3.75 7.47786 3.75 7.49779 3.75 7.51772C3.75 7.53766 3.75 7.5576 3.75 7.57754C3.75 7.59749 3.75 7.61744 3.75 7.63739C3.75 7.65735 3.75 7.67731 3.75 7.69727C3.75 7.71724 3.75 7.73721 3.75 7.75719C3.75 7.77716 3.75 7.79714 3.75 7.81713C3.75 7.83711 3.75 7.8571 3.75 7.8771C3.75 7.89709 3.75 7.91709 3.75 7.93709C3.75 7.9571 3.75 7.9771 3.75 7.99712C3.75 8.01713 3.75 8.03714 3.75 8.05716C3.75 8.07719 3.75 8.09721 3.75 8.11724C3.75 8.13727 3.75 8.1573 3.75 8.17734C3.75 8.19737 3.75 8.21741 3.75 8.23746C3.75 8.2575 3.75 8.27755 3.75 8.2976C3.75 8.31765 3.75 8.33771 3.75 8.35777C3.75 8.37783 3.75 8.39789 3.75 8.41795C3.75 8.43802 3.75 8.45809 3.75 8.47816C3.75 8.49823 3.75 8.51831 3.75 8.53839C3.75 8.55846 3.75 8.57854 3.75 8.59863C3.75 8.61871 3.75 8.6388 3.75 8.65889C3.75 8.67898 3.75 8.69907 3.75 8.71917C3.75 8.73926 3.75 8.75936 3.75 8.77946C3.75 8.79956 3.75 8.81966 3.75 8.83977C3.75 8.85987 3.75 8.87998 3.75 8.90009C3.75 8.9202 3.75 8.94031 3.75 8.96042C3.75 8.98054 3.75 9.00065 3.75 9.02077C3.75 9.04089 3.75 9.06101 3.75 9.08113C3.75 9.10125 3.75 9.12137 3.75 9.14149C3.75 9.16162 3.75 9.18175 3.75 9.20187C3.75 9.222 3.75 9.24213 3.75 9.26226C3.75 9.28239 3.75 9.30252 3.75 9.32265C3.75 9.34279 3.75 9.36292 3.75 9.38306C3.75 9.40319 3.75 9.42333 3.75 9.44346C3.75 9.4636 3.75 9.48374 3.75 9.50388C3.75 9.52402 3.75 9.54416 3.75 9.5643C3.75 9.58444 3.75 9.60458 3.75 9.62472C3.75 9.64486 3.75 9.665 3.75 9.68514C3.75 9.70528 3.75 9.72543 3.75 9.74557C3.75 9.76571 3.75 9.78585 3.75 9.806C3.75 9.82614 3.75 9.84628 3.75 9.86642C3.75 9.88657 3.75 9.90671 3.75 9.92685C3.75 9.94699 3.75 9.96714 3.75 9.98728C3.75 10.0074 3.75 10.0276 3.75 10.0477C3.75 10.0678 3.75 10.088 3.75 10.1081C3.75 10.1283 3.75 10.1484 3.75 10.1685C3.75 10.1887 3.75 10.2088 3.75 10.2289C3.75 10.2491 3.75 10.2692 3.75 10.2894C3.75 10.3095 3.75 10.3296 3.75 10.3498C3.75 10.3699 3.75 10.39 3.75 10.4101C3.75 10.4303 3.75 10.4504 3.75 10.4705C3.75 10.4907 3.75 10.5108 3.75 10.5309C3.75 10.551 3.75 10.5711 3.75 10.5913C3.75 10.6114 3.75 10.6315 3.75 10.6516C3.75 10.6717 3.75 10.6919 3.75 10.712C3.75 10.7321 3.75 10.7522 3.75 10.7723C3.75 10.7924 3.75 10.8125 3.75 10.8326C3.75 10.8527 3.75 10.8728 3.75 10.8929C3.75 10.913 3.75 10.9331 3.75 10.9532C3.75 10.9733 3.75 10.9934 3.75 11.0135C3.75 11.0336 3.75 11.0536 3.75 11.0737C3.75 11.0938 3.75 11.1139 3.75 11.134C3.75 11.154 3.75 11.1741 3.75 11.1942C3.75 11.2143 3.75 11.2343 3.75 11.2544C3.75 11.2744 3.75 11.2945 3.75 11.3146C3.75 11.3346 3.75 11.3547 3.75 11.3747C3.75 11.3948 3.75 11.4148 3.75 11.4349C3.75 11.4549 3.75 11.4749 3.75 11.495C3.75 11.515 3.75 11.535 3.75 11.5551C3.75 11.5751 3.75 11.5951 3.75 11.6151C3.75 11.6351 3.75 11.6552 3.75 11.6752C3.75 11.6952 3.75 11.7152 3.75 11.7352C3.75 11.7552 3.75 11.7752 3.75 11.7952C3.75 11.8152 3.75 11.8351 3.75 11.8551C3.75 11.8751 3.75 11.8951 3.75 11.9151C3.75 11.935 3.75 11.955 3.75 11.975C3.75 11.9949 3.75 12.0149 3.75 12.0348C3.75 12.0548 3.75 12.0747 3.75 12.0947C3.75 12.1146 3.75 12.1345 3.75 12.1545C3.75 12.1744 3.75 12.1943 3.75 12.2142C3.75 12.2342 3.75 12.2541 3.75 12.274C3.75 12.2939 3.75 12.3138 3.75 12.3337C3.75 12.3536 3.75 12.3735 3.75 12.3934C3.75 12.4132 3.75 12.4331 3.75 12.453C3.75 12.4729 3.75 12.4927 3.75 12.5126C3.75 12.5324 3.75 12.5523 3.75 12.5721C3.75 12.592 3.75 12.6118 3.75 12.6317C3.75 12.6515 3.75 12.6713 3.75 12.6911C3.75 12.711 3.75 12.7308 3.75 12.7506C3.75 12.7704 3.75 12.7902 3.75 12.81C3.75 12.8298 3.75 12.8496 3.75 12.8693C3.75 12.8891 3.75 12.9089 3.75 12.9287C3.75 12.9484 3.75 12.9682 3.75 12.9879C3.75 13.0077 3.75 13.0274 3.75 13.0471C3.75 13.0669 3.75 13.0866 3.75 13.1063C3.75 13.126 3.75 13.1458 3.75 13.1655C3.75 13.1852 3.75 13.2049 3.75 13.2245C3.75 13.2442 3.75 13.2639 3.75 13.2836C3.75 13.3032 3.75 13.3229 3.75 13.3426C3.75 13.3622 3.75 13.3819 3.75 13.4015C3.75 13.4211 3.75 13.4408 3.75 13.4604C3.75 13.48 3.75 13.4996 3.75 13.5192C3.75 13.5388 3.75 13.5584 3.75 13.578C3.75 13.5976 3.75 13.6172 3.75 13.6367C3.75 13.6563 3.75 13.6758 3.75 13.6954C3.75 13.7149 3.75 13.7345 3.75 13.754C3.75 13.7735 3.75 13.7931 3.75 13.8126C3.75 13.8321 3.75 13.8516 3.75 13.8711C3.75 13.8906 3.75 13.9101 3.75 13.9295C3.75 13.949 3.75 13.9685 3.75 13.9879C3.75 14.0074 3.75 14.0268 3.75 14.0463C3.75 14.0657 3.75 14.0851 3.75 14.1045C3.75 14.1239 3.75 14.1433 3.75 14.1627C3.75 14.1821 3.75 14.2015 3.75 14.2209C3.75 14.2403 3.75 14.2596 3.75 14.279C3.75 14.2983 3.75 14.3177 3.75 14.337C3.75 14.3563 3.75 14.3756 3.75 14.3949C3.75 14.4142 3.75 14.4335 3.75 14.4528C3.75 14.4721 3.75 14.4914 3.75 14.5107C3.75 14.5299 3.75 14.5492 3.75 14.5684C3.75 14.5877 3.75 14.6069 3.75 14.6261C3.75 14.6453 3.75 14.6645 3.75 14.6837C3.75 14.7029 3.75 14.7221 3.75 14.7413C3.75 14.7604 3.75 14.7796 3.75 14.7988C3.75 14.8179 3.75 14.837 3.75 14.8562C3.75 14.8753 3.75 14.8944 3.75 14.9135C3.75 14.9326 3.75 14.9517 3.75 14.9708C3.75 14.9898 3.75 15.0089 3.75 15.028C3.75 15.047 3.75 15.0661 3.75 15.0851C3.75 15.1041 3.75 15.1231 3.75 15.1421C3.75 15.1611 3.75 15.1801 3.75 15.1991C3.75 15.2181 3.75 15.237 3.75 15.256C3.75 15.2749 3.75 15.2939 3.75 15.3128C3.75 15.3317 3.75 15.3506 3.75 15.3695C3.75 15.3884 3.75 15.4073 3.75 15.4262C3.75 15.445 3.75 15.4639 3.75 15.4827C3.75 15.5016 3.75 15.5204 3.75 15.5392C3.75 15.558 3.75 15.5768 3.75 15.5956C3.75 15.6144 3.75 15.6332 3.75 15.6519C3.75 15.6707 3.75 15.6895 3.75 15.7082C3.75 15.7269 3.75 15.7456 3.75 15.7643C3.75 15.783 3.75 15.8017 3.75 15.8204C3.75 15.8391 3.75 15.8577 3.75 15.8764C3.75 15.895 3.75 15.9137 3.75 15.9323C3.75 15.9509 3.75 15.9695 3.75 15.9881C3.75 16.0067 3.75 16.0252 3.75 16.0438C3.75 16.0624 3.75 16.0809 3.75 16.0994C3.75 16.118 3.75 16.1365 3.75 16.155C3.75 16.1735 3.75 16.1919 3.75 16.2104C3.75 16.2289 3.75 16.2473 3.75 16.2658C3.75 16.2842 3.75 16.3026 3.75 16.321C3.75 16.3394 3.75 16.3578 3.75 16.3762C3.75 16.3946 3.75 16.4129 3.75 16.4313C3.75 16.4496 3.75 16.4679 3.75 16.4862C3.75 16.5045 3.75 16.5228 3.75 16.5411C3.75 16.5594 3.75 16.5776 3.75 16.5959C3.75 16.6141 3.75 16.6323 3.75 16.6506C3.75 16.6688 3.75 16.687 3.75 16.7051C3.75 16.7233 3.75 16.7415 3.75 16.7596C3.75 16.7778 3.75 16.7959 3.75 16.814C3.75 16.8321 3.75 16.8502 3.75 16.8683C3.75 16.8863 3.75 16.9044 3.75 16.9224C3.75 16.9405 3.75 16.9585 3.75 16.9765C3.75 16.9945 3.75 17.0125 3.75 17.0305C3.75 17.0485 3.75 17.0664 3.75 17.0843C3.75 17.1023 3.75 17.1202 3.75 17.1381C3.75 17.156 3.75 17.1739 3.75 17.1917C3.75 17.2096 3.75 17.2275 3.75 17.2453C3.75 17.2631 3.75 17.2809 3.75 17.2987C3.75 17.3165 3.75 17.3343 3.75 17.352C3.75 17.3698 3.75 17.3875 3.75 17.4052C3.75 17.423 3.75 17.4407 3.75 17.4583C3.75 17.476 3.75 17.4937 3.75 17.5113C3.75 17.529 3.75 17.5466 3.75 17.5642C3.75 17.5818 3.75 17.5994 3.75 17.617C3.75 17.6345 3.75 17.6521 3.75 17.6696C3.75 17.6871 3.75 17.7047 3.75 17.7221C3.75 17.7396 3.75 17.7571 3.75 17.7746C3.75 17.792 3.75 17.8094 3.75 17.8269C3.75 17.8443 3.75 17.8617 3.75 17.879C3.75 17.8964 3.75 17.9138 3.75 17.9311C3.75 17.9484 3.75 17.9657 3.75 17.983C3.75 18.0003 3.75 18.0176 3.75 18.0348C3.75 18.0521 3.75 18.0693 3.75 18.0865C3.75 18.1038 3.75 18.1209 3.75 18.1381C3.75 18.1553 3.75 18.1724 3.75 18.1896C3.75 18.2067 3.75 18.2238 3.75 18.2409C3.75 18.258 3.75 18.2751 3.75 18.2921C3.75 18.3091 3.75 18.3262 3.75 18.3432C3.75 18.3602 3.75 18.3772 3.75 18.3941C3.75 18.4111 3.75 18.428 3.75 18.4449C3.75 18.4619 3.75 18.4788 3.75 18.4956C3.75 18.5125 3.75 18.5294 3.75 18.5462C3.75 18.563 3.75 18.5799 3.75 18.5966C3.75 18.6134 3.75 18.6302 3.75 18.6469C3.75 18.6637 3.75 18.6804 3.75 18.6971C3.75 18.7138 3.75 18.7305 3.75 18.7472C3.75 18.7638 3.75 18.7805 3.75 18.7971C3.75 18.8137 3.75 18.8303 3.75 18.8468C3.75 18.8634 3.75 18.8799 3.75 18.8965C3.75 18.913 3.75 18.9295 3.75 18.946C3.75 18.9625 3.75 18.9789 3.75 18.9953C3.75 19.0118 3.75 19.0282 3.75 19.0446C3.75 19.0609 3.75 19.0773 3.75 19.0937C3.75 19.11 3.75 19.1263 3.75 19.1426C3.75 19.1589 3.75 19.1752 3.75 19.1914C3.75 19.2077 3.75 19.2239 3.75 19.2401C3.75 19.2563 3.75 19.2724 3.75 19.2886C3.75 19.3048 3.75 19.3209 3.75 19.337C3.75 19.3531 3.75 19.3692 3.75 19.3852C3.75 19.4013 3.75 19.4173 3.75 19.4333C3.75 19.4493 3.75 19.4653 3.75 19.4813C3.75 19.4972 3.75 19.5132 3.75 19.5291C3.75 19.545 3.75 19.5609 3.75 19.5767C3.75 19.5926 3.75 19.6084 3.75 19.6242C3.75 19.64 3.75 19.6558 3.75 19.6716C3.75 19.6873 3.75 19.7031 3.75 19.7188C3.75 19.7345 3.75 19.7502 3.75 19.7659C3.75 19.7815 3.75 19.7971 3.75 19.8128C3.75 19.8284 3.75 19.844 3.75 19.8595C3.75 19.8751 3.75 19.8906 3.75 19.9061C3.75 19.9216 3.75 19.9371 3.75 19.9526C3.75 19.968 3.75 19.9834 3.75 19.9989C3.75 20.0143 3.75 20.0296 3.75 20.045C3.75 20.0603 3.75 20.0757 3.75 20.091C3.75 20.1063 3.75 20.1215 3.75 20.1368C3.75 20.152 3.75 20.1673 3.75 20.1825C3.75 20.1977 3.75 20.2128 3.75 20.228C3.75 20.2431 3.75 20.2582 3.75 20.2733C3.75 20.2884 3.75 20.3035 3.75 20.3185C3.75 20.3335 3.75 20.3485 3.75 20.3635C3.75 20.3785 3.75 20.3935 3.75 20.4084C3.75 20.4233 3.75 20.4382 3.75 20.4531C3.75 20.468 3.75 20.4828 3.75 20.4976C3.75 20.5124 3.75 20.5272 3.75 20.542C3.75 20.5568 3.75 20.5715 3.75 20.5862C3.75 20.6009 3.75 20.6156 3.75 20.6302C3.75 20.6449 3.75 20.6595 3.75 20.6741C3.75 20.6887 3.75 20.7033 3.75 20.7178C3.75 20.7323 3.75 20.7469 3.75 20.7613C3.75 20.7758 3.75 20.7903 3.75 20.8047C3.75 20.8191 3.75 20.8335 3.75 20.8479C3.75 20.8623 3.75 20.8766 3.75 20.8909C3.75 20.9052 3.75 20.9195 3.75 20.9338C3.75 20.948 3.75 20.9622 3.75 20.9764C3.75 20.9906 3.75 21.0048 3.75 21.0189C3.75 21.0331 3.75 21.0472 3.75 21.0612C3.75 21.0753 3.75 21.0894 3.75 21.1034C3.75 21.1174 3.75 21.1314 3.75 21.1454C3.75 21.1593 3.75 21.1733 3.75 21.1872C3.75 21.2011 3.75 21.2149 3.75 21.2288C3.75 21.2426 3.75 21.2564 3.75 21.2702C3.75 21.284 3.75 21.2977 3.75 21.3115C3.75 21.3252 3.75 21.3389 3.75 21.3525C3.75 21.3662 3.75 21.3798 3.75 21.3934C3.75 21.407 3.75 21.4206 3.75 21.4341C3.75 21.4477 3.75 21.4612 3.75 21.4747C3.75 21.4881 3.75 21.5016 3.75 21.515C3.75 21.5284 3.75 21.5418 3.75 21.5552C3.75 21.5685 3.75 21.5818 3.75 21.5951C3.75 21.6084 3.75 21.6217 3.75 21.6349C3.75 21.6481 3.75 21.6613 3.75 21.6745C3.75 21.6877 3.75 21.7008 3.75 21.7139C3.75 21.727 3.75 21.7401 3.75 21.7531C3.75 21.7662 3.75 21.7792 3.75 21.7921C3.75 21.8051 3.75 21.8181 3.75 21.831C3.75 21.8439 3.75 21.8568 3.75 21.8696C3.75 21.8825 3.75 21.8953 3.75 21.9081C3.75 21.9208 3.75 21.9336 3.75 21.9463C3.75 21.959 3.75 21.9717 3.75 21.9844C3.75 21.997 3.75 22.0096 3.75 22.0222C3.75 22.0348 3.75 22.0474 3.75 22.0599C3.75 22.0724 3.75 22.0849 3.75 22.0974C3.75 22.1098 3.75 22.1223 3.75 22.1346C3.75 22.147 3.75 22.1594 3.75 22.1717C3.75 22.184 3.75 22.1963 3.75 22.2086C3.75 22.2208 3.75 22.2331 3.75 22.2453C3.75 22.2575 3.75 22.2696 3.75 22.2817C3.75 22.2939 3.75 22.3059 3.75 22.318C3.75 22.3301 3.75 22.3421 3.75 22.3541C3.75 22.3661 3.75 22.378 3.75 22.3899C3.75 22.4018 3.75 22.4137 3.75 22.4256C3.75 22.4374 3.75 22.4492 3.75 22.461C3.75 22.4728 3.75 22.4846 3.75 22.4963C3.75 22.508 3.75 22.5197 3.75 22.5313C3.75 22.5429 3.75 22.5546 3.75 22.5661C3.75 22.5777 3.75 22.5892 3.75 22.6007C3.75 22.6123 3.75 22.6237 3.75 22.6352C3.75 22.6466 3.75 22.658 3.75 22.6694C3.75 22.6807 3.75 22.692 3.75 22.7033C3.75 22.7146 3.75 22.7259 3.75 22.7371C3.75 22.7483 3.75 22.7595 3.75 22.7707C3.75 22.7818 3.75 22.7929 3.75 22.804C3.75 22.8151 3.75 22.8261 3.75 22.8371C3.75 22.8481 3.75 22.8591 3.75 22.8701C3.75 22.881 3.75 22.8919 3.75 22.9027C3.75 22.9136 3.75 22.9244 3.75 22.9352C3.75 22.946 3.75 22.9568 3.75 22.9675C3.75 22.9782 3.75 22.9889 3.75 22.9995C3.75 23.0102 3.75 23.0208 3.75 23.0313C3.75 23.0419 3.75 23.0524 3.75 23.0629C3.75 23.0734 3.75 23.0839 3.75 23.0943C3.75 23.1047 3.75 23.1151 3.75 23.1255C3.75 23.1358 3.75 23.1461 3.75 23.1564C3.75 23.1667 3.75 23.1769 3.75 23.1871C3.75 23.1973 3.75 23.2075 3.75 23.2176C3.75 23.2277 3.75 23.2378 3.75 23.2478C3.75 23.2579 3.75 23.2679 3.75 23.2779C3.75 23.2878 3.75 23.2978 3.75 23.3077C3.75 23.3176 3.75 23.3274 3.75 23.3372C3.75 23.347 3.75 23.3568 3.75 23.3666C3.75 23.3763 3.75 23.386 3.75 23.3957C3.75 23.4053 3.75 23.415 3.75 23.4246C3.75 23.4341 3.75 23.4437 3.75 23.4532C3.75 23.4627 3.75 23.4722 3.75 23.4816C3.75 23.491 3.75 23.5004 3.75 23.5098C3.75 23.5191 3.75 23.5285 3.75 23.5377C3.75 23.547 3.75 23.5562 3.75 23.5654C3.75 23.5746 3.75 23.5838 3.75 23.5929C3.75 23.602 3.75 23.6111 3.75 23.6201C3.75 23.6292 3.75 23.6382 3.75 23.6471C3.75 23.6561 3.75 23.665 3.75 23.6739C3.75 23.6828 3.75 23.6916 3.75 23.7004C3.75 23.7092 3.75 23.718 3.75 23.7267C3.75 23.7354 3.75 23.7441 3.75 23.7527C3.75 23.7614 3.75 23.77 3.75 23.7785C3.75 23.7871 3.75 23.7956 3.75 23.8041C3.75 23.8125 3.75 23.821 3.75 23.8294C3.75 23.8378 3.75 23.8461 3.75 23.8544C3.75 23.8627 3.75 23.871 3.75 23.8792C3.75 23.8875 3.75 23.8957 3.75 23.9038C3.75 23.912 3.75 23.9201 3.75 23.9281C3.75 23.9362 3.75 23.9442 3.75 23.9522C3.75 23.9602 3.75 23.9681 3.75 23.976C3.75 23.9839 3.75 23.9918 3.75 23.9996C3.75 24.0074 3.75 24.0152 3.75 24.0229C3.75 24.0306 3.75 24.0383 3.75 24.046C3.75 24.0536 3.75 24.0612 3.75 24.0688C3.75 24.0764 3.75 24.0839 3.75 24.0914C3.75 24.0988 3.75 24.1063 3.75 24.1137C3.75 24.1211 3.75 24.1284 3.75 24.1357C3.75 24.143 3.75 24.1503 3.75 24.1575C3.75 24.1647 3.75 24.1719 3.75 24.1791C3.75 24.1862 3.75 24.1933 3.75 24.2003C3.75 24.2074 3.75 24.2144 3.75 24.2214C3.75 24.2283 3.75 24.2352 3.75 24.2421C3.75 24.249 3.75 24.2558 3.75 24.2626C3.75 24.2694 3.75 24.2762 3.75 24.2829C3.75 24.2896 3.75 24.2962 3.75 24.3028C3.75 24.3095 3.75 24.316 3.75 24.3226C3.75 24.3291 3.75 24.3356 3.75 24.342C3.75 24.3485 3.75 24.3548 3.75 24.3612C3.75 24.3676 3.75 24.3739 3.75 24.3801C3.75 24.3864 3.75 24.3926 3.75 24.3988C3.75 24.405 3.75 24.4111 3.75 24.4172C3.75 24.4233 3.75 24.4293 3.75 24.4353C3.75 24.4413 3.75 24.4472 3.75 24.4531C3.75 24.459 3.75 24.4649 3.75 24.4707C3.75 24.4765 3.75 24.4823 3.75 24.488C3.75 24.4938 3.75 24.4994 3.75 24.5051C3.75 24.5107 3.75 24.5163 3.75 24.5218C3.75 24.5274 3.75 24.5329 3.75 24.5383C3.75 24.5438 3.75 24.5492 3.75 24.5546C3.75 24.5599 3.75 24.5652 3.75 24.5705C3.75 24.5758 3.75 24.581 3.75 24.5862C3.75 24.5914 3.75 24.5965 3.75 24.6016C3.75 24.6067 3.75 24.6117 3.75 24.6167C3.75 24.6217 3.75 24.6266 3.75 24.6315C3.75 24.6364 3.75 24.6413 3.75 24.6461C3.75 24.6509 3.75 24.6557 3.75 24.6604C3.75 24.6651 3.75 24.6697 3.75 24.6744C3.75 24.679 3.75 24.6836 3.75 24.6881C3.75 24.6926 3.75 24.6971 3.75 24.7015C3.75 24.7059 3.75 24.7103 3.75 24.7147C3.75 24.719 3.75 24.7233 3.75 24.7275C3.75 24.7318 3.75 24.736 3.75 24.7401C3.75 24.7443 3.75 24.7484 3.75 24.7524C3.75 24.7565 3.75 24.7605 3.75 24.7644C3.75 24.7684 3.75 24.7723 3.75 24.7761C3.75 24.78 3.75 24.7838 3.75 24.7876C3.75 24.7913 3.75 24.795 3.75 24.7987C3.75 24.8024 3.75 24.806 3.75 24.8096C3.75 24.8131 3.75 24.8167 3.75 24.8201C3.75 24.8236 3.75 24.827 3.75 24.8304C3.75 24.8338 3.75 24.8371 3.75 24.8404C3.75 24.8437 3.75 24.8469 3.75 24.8501C3.75 24.8532 3.75 24.8564 3.75 24.8595C3.75 24.8625 3.75 24.8656 3.75 24.8685C3.75 24.8715 3.75 24.8745 3.75 24.8773C3.75 24.8802 3.75 24.8831 3.75 24.8858C3.75 24.8886 3.75 24.8914 3.75 24.8941C3.75 24.8967 3.75 24.8994 3.75 24.902C3.75 24.9045 3.75 24.9071 3.75 24.9096C3.75 24.912 3.75 24.9145 3.75 24.9169C3.75 24.9192 3.75 24.9216 3.75 24.9239C3.75 24.9262 3.75 24.9284 3.75 24.9306C3.75 24.9328 3.75 24.9349 3.75 24.937C3.75 24.939 3.75 24.9411 3.75 24.9431C3.75 24.945 3.75 24.947 3.75 24.9489C3.75 24.9507 3.75 24.9526 3.75 24.9543C3.75 24.9561 3.75 24.9578 3.75 24.9595C3.75 24.9612 3.75 24.9628 3.75 24.9644C3.75 24.966 3.75 24.9675 3.75 24.9689C3.75 24.9704 3.75 24.9718 3.75 24.9732C3.75 24.9746 3.75 24.9759 3.75 24.9771C3.75 24.9784 3.75 24.9796 3.75 24.9808C3.75 24.9819 3.75 24.983 3.75 24.9841C3.75 24.9852 3.75 24.9862 3.75 24.9871C3.75 24.9881 3.75 24.989 3.75 24.9898C3.75 24.9907 3.75 24.9914 3.75 24.9922C3.75 24.9929 3.75 24.9936 3.75 24.9943C3.75 24.9949 3.75 24.9955 3.75 24.996C3.75 24.9965 3.75 24.997 3.75 24.9974C3.75 24.9979 3.75 24.9982 3.75 24.9986C3.75 24.9989 3.75 24.9991 3.75 24.9994C3.75 24.9996 3.75 24.9997 3.75 24.9998C3.75 24.9999 3.75 25 4.5 25C5.25 25 5.25 24.9999 5.25 24.9998C5.25 24.9997 5.25 24.9996 5.25 24.9994C5.25 24.9991 5.25 24.9989 5.25 24.9986C5.25 24.9982 5.25 24.9979 5.25 24.9974C5.25 24.997 5.25 24.9965 5.25 24.996C5.25 24.9955 5.25 24.9949 5.25 24.9943C5.25 24.9936 5.25 24.9929 5.25 24.9922C5.25 24.9914 5.25 24.9907 5.25 24.9898C5.25 24.989 5.25 24.9881 5.25 24.9871C5.25 24.9862 5.25 24.9852 5.25 24.9841C5.25 24.983 5.25 24.9819 5.25 24.9808C5.25 24.9796 5.25 24.9784 5.25 24.9771C5.25 24.9759 5.25 24.9746 5.25 24.9732C5.25 24.9718 5.25 24.9704 5.25 24.9689C5.25 24.9675 5.25 24.966 5.25 24.9644C5.25 24.9628 5.25 24.9612 5.25 24.9595C5.25 24.9578 5.25 24.9561 5.25 24.9543C5.25 24.9526 5.25 24.9507 5.25 24.9489C5.25 24.947 5.25 24.945 5.25 24.9431C5.25 24.9411 5.25 24.939 5.25 24.937C5.25 24.9349 5.25 24.9328 5.25 24.9306C5.25 24.9284 5.25 24.9262 5.25 24.9239C5.25 24.9216 5.25 24.9192 5.25 24.9169C5.25 24.9145 5.25 24.912 5.25 24.9096C5.25 24.9071 5.25 24.9045 5.25 24.902C5.25 24.8994 5.25 24.8967 5.25 24.8941C5.25 24.8914 5.25 24.8886 5.25 24.8858C5.25 24.8831 5.25 24.8802 5.25 24.8773C5.25 24.8745 5.25 24.8715 5.25 24.8685C5.25 24.8656 5.25 24.8625 5.25 24.8595C5.25 24.8564 5.25 24.8532 5.25 24.8501C5.25 24.8469 5.25 24.8437 5.25 24.8404C5.25 24.8371 5.25 24.8338 5.25 24.8304C5.25 24.827 5.25 24.8236 5.25 24.8201C5.25 24.8167 5.25 24.8131 5.25 24.8096C5.25 24.806 5.25 24.8024 5.25 24.7987C5.25 24.795 5.25 24.7913 5.25 24.7876C5.25 24.7838 5.25 24.78 5.25 24.7761C5.25 24.7723 5.25 24.7684 5.25 24.7644C5.25 24.7605 5.25 24.7565 5.25 24.7524C5.25 24.7484 5.25 24.7443 5.25 24.7401C5.25 24.736 5.25 24.7318 5.25 24.7275C5.25 24.7233 5.25 24.719 5.25 24.7147C5.25 24.7103 5.25 24.7059 5.25 24.7015C5.25 24.6971 5.25 24.6926 5.25 24.6881C5.25 24.6836 5.25 24.679 5.25 24.6744C5.25 24.6697 5.25 24.6651 5.25 24.6604C5.25 24.6557 5.25 24.6509 5.25 24.6461C5.25 24.6413 5.25 24.6364 5.25 24.6315C5.25 24.6266 5.25 24.6217 5.25 24.6167C5.25 24.6117 5.25 24.6067 5.25 24.6016C5.25 24.5965 5.25 24.5914 5.25 24.5862C5.25 24.581 5.25 24.5758 5.25 24.5705C5.25 24.5652 5.25 24.5599 5.25 24.5546C5.25 24.5492 5.25 24.5438 5.25 24.5383C5.25 24.5329 5.25 24.5274 5.25 24.5218C5.25 24.5163 5.25 24.5107 5.25 24.5051C5.25 24.4994 5.25 24.4938 5.25 24.488C5.25 24.4823 5.25 24.4765 5.25 24.4707C5.25 24.4649 5.25 24.459 5.25 24.4531C5.25 24.4472 5.25 24.4413 5.25 24.4353C5.25 24.4293 5.25 24.4233 5.25 24.4172C5.25 24.4111 5.25 24.405 5.25 24.3988C5.25 24.3926 5.25 24.3864 5.25 24.3801C5.25 24.3739 5.25 24.3676 5.25 24.3612C5.25 24.3548 5.25 24.3485 5.25 24.342C5.25 24.3356 5.25 24.3291 5.25 24.3226C5.25 24.316 5.25 24.3095 5.25 24.3028C5.25 24.2962 5.25 24.2896 5.25 24.2829C5.25 24.2762 5.25 24.2694 5.25 24.2626C5.25 24.2558 5.25 24.249 5.25 24.2421C5.25 24.2352 5.25 24.2283 5.25 24.2214C5.25 24.2144 5.25 24.2074 5.25 24.2003C5.25 24.1933 5.25 24.1862 5.25 24.1791C5.25 24.1719 5.25 24.1647 5.25 24.1575C5.25 24.1503 5.25 24.143 5.25 24.1357C5.25 24.1284 5.25 24.1211 5.25 24.1137C5.25 24.1063 5.25 24.0988 5.25 24.0914C5.25 24.0839 5.25 24.0764 5.25 24.0688C5.25 24.0612 5.25 24.0536 5.25 24.046C5.25 24.0383 5.25 24.0306 5.25 24.0229C5.25 24.0152 5.25 24.0074 5.25 23.9996C5.25 23.9918 5.25 23.9839 5.25 23.976C5.25 23.9681 5.25 23.9602 5.25 23.9522C5.25 23.9442 5.25 23.9362 5.25 23.9281C5.25 23.9201 5.25 23.912 5.25 23.9038C5.25 23.8957 5.25 23.8875 5.25 23.8792C5.25 23.871 5.25 23.8627 5.25 23.8544C5.25 23.8461 5.25 23.8378 5.25 23.8294C5.25 23.821 5.25 23.8125 5.25 23.8041C5.25 23.7956 5.25 23.7871 5.25 23.7785C5.25 23.77 5.25 23.7614 5.25 23.7527C5.25 23.7441 5.25 23.7354 5.25 23.7267C5.25 23.718 5.25 23.7092 5.25 23.7004C5.25 23.6916 5.25 23.6828 5.25 23.6739C5.25 23.665 5.25 23.6561 5.25 23.6471C5.25 23.6382 5.25 23.6292 5.25 23.6201C5.25 23.6111 5.25 23.602 5.25 23.5929C5.25 23.5838 5.25 23.5746 5.25 23.5654C5.25 23.5562 5.25 23.547 5.25 23.5377C5.25 23.5285 5.25 23.5191 5.25 23.5098C5.25 23.5004 5.25 23.491 5.25 23.4816C5.25 23.4722 5.25 23.4627 5.25 23.4532C5.25 23.4437 5.25 23.4341 5.25 23.4246C5.25 23.415 5.25 23.4053 5.25 23.3957C5.25 23.386 5.25 23.3763 5.25 23.3666C5.25 23.3568 5.25 23.347 5.25 23.3372C5.25 23.3274 5.25 23.3176 5.25 23.3077C5.25 23.2978 5.25 23.2878 5.25 23.2779C5.25 23.2679 5.25 23.2579 5.25 23.2478C5.25 23.2378 5.25 23.2277 5.25 23.2176C5.25 23.2075 5.25 23.1973 5.25 23.1871C5.25 23.1769 5.25 23.1667 5.25 23.1564C5.25 23.1461 5.25 23.1358 5.25 23.1255C5.25 23.1151 5.25 23.1047 5.25 23.0943C5.25 23.0839 5.25 23.0734 5.25 23.0629C5.25 23.0524 5.25 23.0419 5.25 23.0313C5.25 23.0208 5.25 23.0102 5.25 22.9995C5.25 22.9889 5.25 22.9782 5.25 22.9675C5.25 22.9568 5.25 22.946 5.25 22.9352C5.25 22.9244 5.25 22.9136 5.25 22.9027C5.25 22.8919 5.25 22.881 5.25 22.8701C5.25 22.8591 5.25 22.8481 5.25 22.8371C5.25 22.8261 5.25 22.8151 5.25 22.804C5.25 22.7929 5.25 22.7818 5.25 22.7707C5.25 22.7595 5.25 22.7483 5.25 22.7371C5.25 22.7259 5.25 22.7146 5.25 22.7033C5.25 22.692 5.25 22.6807 5.25 22.6694C5.25 22.658 5.25 22.6466 5.25 22.6352C5.25 22.6237 5.25 22.6123 5.25 22.6007C5.25 22.5892 5.25 22.5777 5.25 22.5661C5.25 22.5546 5.25 22.5429 5.25 22.5313C5.25 22.5197 5.25 22.508 5.25 22.4963C5.25 22.4846 5.25 22.4728 5.25 22.461C5.25 22.4492 5.25 22.4374 5.25 22.4256C5.25 22.4137 5.25 22.4018 5.25 22.3899C5.25 22.378 5.25 22.3661 5.25 22.3541C5.25 22.3421 5.25 22.3301 5.25 22.318C5.25 22.3059 5.25 22.2939 5.25 22.2817C5.25 22.2696 5.25 22.2575 5.25 22.2453C5.25 22.2331 5.25 22.2208 5.25 22.2086C5.25 22.1963 5.25 22.184 5.25 22.1717C5.25 22.1594 5.25 22.147 5.25 22.1346C5.25 22.1223 5.25 22.1098 5.25 22.0974C5.25 22.0849 5.25 22.0724 5.25 22.0599C5.25 22.0474 5.25 22.0348 5.25 22.0222C5.25 22.0096 5.25 21.997 5.25 21.9844C5.25 21.9717 5.25 21.959 5.25 21.9463C5.25 21.9336 5.25 21.9208 5.25 21.9081C5.25 21.8953 5.25 21.8825 5.25 21.8696C5.25 21.8568 5.25 21.8439 5.25 21.831C5.25 21.8181 5.25 21.8051 5.25 21.7921C5.25 21.7792 5.25 21.7662 5.25 21.7531C5.25 21.7401 5.25 21.727 5.25 21.7139C5.25 21.7008 5.25 21.6877 5.25 21.6745C5.25 21.6613 5.25 21.6481 5.25 21.6349C5.25 21.6217 5.25 21.6084 5.25 21.5951C5.25 21.5818 5.25 21.5685 5.25 21.5552C5.25 21.5418 5.25 21.5284 5.25 21.515C5.25 21.5016 5.25 21.4881 5.25 21.4747C5.25 21.4612 5.25 21.4477 5.25 21.4341C5.25 21.4206 5.25 21.407 5.25 21.3934C5.25 21.3798 5.25 21.3662 5.25 21.3525C5.25 21.3389 5.25 21.3252 5.25 21.3115C5.25 21.2977 5.25 21.284 5.25 21.2702C5.25 21.2564 5.25 21.2426 5.25 21.2288C5.25 21.2149 5.25 21.2011 5.25 21.1872C5.25 21.1733 5.25 21.1593 5.25 21.1454C5.25 21.1314 5.25 21.1174 5.25 21.1034C5.25 21.0894 5.25 21.0753 5.25 21.0612C5.25 21.0472 5.25 21.0331 5.25 21.0189C5.25 21.0048 5.25 20.9906 5.25 20.9764C5.25 20.9622 5.25 20.948 5.25 20.9338C5.25 20.9195 5.25 20.9052 5.25 20.8909C5.25 20.8766 5.25 20.8623 5.25 20.8479C5.25 20.8335 5.25 20.8191 5.25 20.8047C5.25 20.7903 5.25 20.7758 5.25 20.7613C5.25 20.7469 5.25 20.7323 5.25 20.7178C5.25 20.7033 5.25 20.6887 5.25 20.6741C5.25 20.6595 5.25 20.6449 5.25 20.6302C5.25 20.6156 5.25 20.6009 5.25 20.5862C5.25 20.5715 5.25 20.5568 5.25 20.542C5.25 20.5272 5.25 20.5124 5.25 20.4976C5.25 20.4828 5.25 20.468 5.25 20.4531C5.25 20.4382 5.25 20.4233 5.25 20.4084C5.25 20.3935 5.25 20.3785 5.25 20.3635C5.25 20.3485 5.25 20.3335 5.25 20.3185C5.25 20.3035 5.25 20.2884 5.25 20.2733C5.25 20.2582 5.25 20.2431 5.25 20.228C5.25 20.2128 5.25 20.1977 5.25 20.1825C5.25 20.1673 5.25 20.152 5.25 20.1368C5.25 20.1215 5.25 20.1063 5.25 20.091C5.25 20.0757 5.25 20.0603 5.25 20.045C5.25 20.0296 5.25 20.0143 5.25 19.9989C5.25 19.9834 5.25 19.968 5.25 19.9526C5.25 19.9371 5.25 19.9216 5.25 19.9061C5.25 19.8906 5.25 19.8751 5.25 19.8595C5.25 19.844 5.25 19.8284 5.25 19.8128C5.25 19.7971 5.25 19.7815 5.25 19.7659C5.25 19.7502 5.25 19.7345 5.25 19.7188C5.25 19.7031 5.25 19.6873 5.25 19.6716C5.25 19.6558 5.25 19.64 5.25 19.6242C5.25 19.6084 5.25 19.5926 5.25 19.5767C5.25 19.5609 5.25 19.545 5.25 19.5291C5.25 19.5132 5.25 19.4972 5.25 19.4813C5.25 19.4653 5.25 19.4493 5.25 19.4333C5.25 19.4173 5.25 19.4013 5.25 19.3852C5.25 19.3692 5.25 19.3531 5.25 19.337C5.25 19.3209 5.25 19.3048 5.25 19.2886C5.25 19.2724 5.25 19.2563 5.25 19.2401C5.25 19.2239 5.25 19.2077 5.25 19.1914C5.25 19.1752 5.25 19.1589 5.25 19.1426C5.25 19.1263 5.25 19.11 5.25 19.0937C5.25 19.0773 5.25 19.0609 5.25 19.0446C5.25 19.0282 5.25 19.0118 5.25 18.9953C5.25 18.9789 5.25 18.9625 5.25 18.946C5.25 18.9295 5.25 18.913 5.25 18.8965C5.25 18.8799 5.25 18.8634 5.25 18.8468C5.25 18.8303 5.25 18.8137 5.25 18.7971C5.25 18.7805 5.25 18.7638 5.25 18.7472C5.25 18.7305 5.25 18.7138 5.25 18.6971C5.25 18.6804 5.25 18.6637 5.25 18.6469C5.25 18.6302 5.25 18.6134 5.25 18.5966C5.25 18.5799 5.25 18.563 5.25 18.5462C5.25 18.5294 5.25 18.5125 5.25 18.4956C5.25 18.4788 5.25 18.4619 5.25 18.4449C5.25 18.428 5.25 18.4111 5.25 18.3941C5.25 18.3772 5.25 18.3602 5.25 18.3432C5.25 18.3262 5.25 18.3091 5.25 18.2921C5.25 18.2751 5.25 18.258 5.25 18.2409C5.25 18.2238 5.25 18.2067 5.25 18.1896C5.25 18.1724 5.25 18.1553 5.25 18.1381C5.25 18.1209 5.25 18.1038 5.25 18.0865C5.25 18.0693 5.25 18.0521 5.25 18.0348C5.25 18.0176 5.25 18.0003 5.25 17.983C5.25 17.9657 5.25 17.9484 5.25 17.9311C5.25 17.9138 5.25 17.8964 5.25 17.879C5.25 17.8617 5.25 17.8443 5.25 17.8269C5.25 17.8094 5.25 17.792 5.25 17.7746C5.25 17.7571 5.25 17.7396 5.25 17.7221C5.25 17.7047 5.25 17.6871 5.25 17.6696C5.25 17.6521 5.25 17.6345 5.25 17.617C5.25 17.5994 5.25 17.5818 5.25 17.5642C5.25 17.5466 5.25 17.529 5.25 17.5113C5.25 17.4937 5.25 17.476 5.25 17.4583C5.25 17.4407 5.25 17.423 5.25 17.4052C5.25 17.3875 5.25 17.3698 5.25 17.352C5.25 17.3343 5.25 17.3165 5.25 17.2987C5.25 17.2809 5.25 17.2631 5.25 17.2453C5.25 17.2275 5.25 17.2096 5.25 17.1917C5.25 17.1739 5.25 17.156 5.25 17.1381C5.25 17.1202 5.25 17.1023 5.25 17.0843C5.25 17.0664 5.25 17.0485 5.25 17.0305C5.25 17.0125 5.25 16.9945 5.25 16.9765C5.25 16.9585 5.25 16.9405 5.25 16.9224C5.25 16.9044 5.25 16.8863 5.25 16.8683C5.25 16.8502 5.25 16.8321 5.25 16.814C5.25 16.7959 5.25 16.7778 5.25 16.7596C5.25 16.7415 5.25 16.7233 5.25 16.7051C5.25 16.687 5.25 16.6688 5.25 16.6506C5.25 16.6323 5.25 16.6141 5.25 16.5959C5.25 16.5776 5.25 16.5594 5.25 16.5411C5.25 16.5228 5.25 16.5045 5.25 16.4862C5.25 16.4679 5.25 16.4496 5.25 16.4313C5.25 16.4129 5.25 16.3946 5.25 16.3762C5.25 16.3578 5.25 16.3394 5.25 16.321C5.25 16.3026 5.25 16.2842 5.25 16.2658C5.25 16.2473 5.25 16.2289 5.25 16.2104C5.25 16.1919 5.25 16.1735 5.25 16.155C5.25 16.1365 5.25 16.118 5.25 16.0994C5.25 16.0809 5.25 16.0624 5.25 16.0438C5.25 16.0252 5.25 16.0067 5.25 15.9881C5.25 15.9695 5.25 15.9509 5.25 15.9323C5.25 15.9137 5.25 15.895 5.25 15.8764C5.25 15.8577 5.25 15.8391 5.25 15.8204C5.25 15.8017 5.25 15.783 5.25 15.7643C5.25 15.7456 5.25 15.7269 5.25 15.7082C5.25 15.6895 5.25 15.6707 5.25 15.6519C5.25 15.6332 5.25 15.6144 5.25 15.5956C5.25 15.5768 5.25 15.558 5.25 15.5392C5.25 15.5204 5.25 15.5016 5.25 15.4827C5.25 15.4639 5.25 15.445 5.25 15.4262C5.25 15.4073 5.25 15.3884 5.25 15.3695C5.25 15.3506 5.25 15.3317 5.25 15.3128C5.25 15.2939 5.25 15.2749 5.25 15.256C5.25 15.237 5.25 15.2181 5.25 15.1991C5.25 15.1801 5.25 15.1611 5.25 15.1421C5.25 15.1231 5.25 15.1041 5.25 15.0851C5.25 15.0661 5.25 15.047 5.25 15.028C5.25 15.0089 5.25 14.9898 5.25 14.9708C5.25 14.9517 5.25 14.9326 5.25 14.9135C5.25 14.8944 5.25 14.8753 5.25 14.8562C5.25 14.837 5.25 14.8179 5.25 14.7988C5.25 14.7796 5.25 14.7604 5.25 14.7413C5.25 14.7221 5.25 14.7029 5.25 14.6837C5.25 14.6645 5.25 14.6453 5.25 14.6261C5.25 14.6069 5.25 14.5877 5.25 14.5684C5.25 14.5492 5.25 14.5299 5.25 14.5107C5.25 14.4914 5.25 14.4721 5.25 14.4528C5.25 14.4335 5.25 14.4142 5.25 14.3949C5.25 14.3756 5.25 14.3563 5.25 14.337C5.25 14.3177 5.25 14.2983 5.25 14.279C5.25 14.2596 5.25 14.2403 5.25 14.2209C5.25 14.2015 5.25 14.1821 5.25 14.1627C5.25 14.1433 5.25 14.1239 5.25 14.1045C5.25 14.0851 5.25 14.0657 5.25 14.0463C5.25 14.0268 5.25 14.0074 5.25 13.9879C5.25 13.9685 5.25 13.949 5.25 13.9295C5.25 13.9101 5.25 13.8906 5.25 13.8711C5.25 13.8516 5.25 13.8321 5.25 13.8126C5.25 13.7931 5.25 13.7735 5.25 13.754C5.25 13.7345 5.25 13.7149 5.25 13.6954C5.25 13.6758 5.25 13.6563 5.25 13.6367C5.25 13.6172 5.25 13.5976 5.25 13.578C5.25 13.5584 5.25 13.5388 5.25 13.5192C5.25 13.4996 5.25 13.48 5.25 13.4604C5.25 13.4408 5.25 13.4211 5.25 13.4015C5.25 13.3819 5.25 13.3622 5.25 13.3426C5.25 13.3229 5.25 13.3032 5.25 13.2836C5.25 13.2639 5.25 13.2442 5.25 13.2245C5.25 13.2049 5.25 13.1852 5.25 13.1655C5.25 13.1458 5.25 13.126 5.25 13.1063C5.25 13.0866 5.25 13.0669 5.25 13.0471C5.25 13.0274 5.25 13.0077 5.25 12.9879C5.25 12.9682 5.25 12.9484 5.25 12.9287C5.25 12.9089 5.25 12.8891 5.25 12.8693C5.25 12.8496 5.25 12.8298 5.25 12.81C5.25 12.7902 5.25 12.7704 5.25 12.7506C5.25 12.7308 5.25 12.711 5.25 12.6911C5.25 12.6713 5.25 12.6515 5.25 12.6317C5.25 12.6118 5.25 12.592 5.25 12.5721C5.25 12.5523 5.25 12.5324 5.25 12.5126C5.25 12.4927 5.25 12.4729 5.25 12.453C5.25 12.4331 5.25 12.4132 5.25 12.3934C5.25 12.3735 5.25 12.3536 5.25 12.3337C5.25 12.3138 5.25 12.2939 5.25 12.274C5.25 12.2541 5.25 12.2342 5.25 12.2142C5.25 12.1943 5.25 12.1744 5.25 12.1545C5.25 12.1345 5.25 12.1146 5.25 12.0947C5.25 12.0747 5.25 12.0548 5.25 12.0348C5.25 12.0149 5.25 11.9949 5.25 11.975C5.25 11.955 5.25 11.935 5.25 11.9151C5.25 11.8951 5.25 11.8751 5.25 11.8551C5.25 11.8351 5.25 11.8152 5.25 11.7952C5.25 11.7752 5.25 11.7552 5.25 11.7352C5.25 11.7152 5.25 11.6952 5.25 11.6752C5.25 11.6552 5.25 11.6351 5.25 11.6151C5.25 11.5951 5.25 11.5751 5.25 11.5551C5.25 11.535 5.25 11.515 5.25 11.495C5.25 11.4749 5.25 11.4549 5.25 11.4349C5.25 11.4148 5.25 11.3948 5.25 11.3747C5.25 11.3547 5.25 11.3346 5.25 11.3146C5.25 11.2945 5.25 11.2744 5.25 11.2544C5.25 11.2343 5.25 11.2143 5.25 11.1942C5.25 11.1741 5.25 11.154 5.25 11.134C5.25 11.1139 5.25 11.0938 5.25 11.0737C5.25 11.0536 5.25 11.0336 5.25 11.0135C5.25 10.9934 5.25 10.9733 5.25 10.9532C5.25 10.9331 5.25 10.913 5.25 10.8929C5.25 10.8728 5.25 10.8527 5.25 10.8326C5.25 10.8125 5.25 10.7924 5.25 10.7723C5.25 10.7522 5.25 10.7321 5.25 10.712C5.25 10.6919 5.25 10.6717 5.25 10.6516C5.25 10.6315 5.25 10.6114 5.25 10.5913C5.25 10.5711 5.25 10.551 5.25 10.5309C5.25 10.5108 5.25 10.4907 5.25 10.4705C5.25 10.4504 5.25 10.4303 5.25 10.4101C5.25 10.39 5.25 10.3699 5.25 10.3498C5.25 10.3296 5.25 10.3095 5.25 10.2894C5.25 10.2692 5.25 10.2491 5.25 10.2289C5.25 10.2088 5.25 10.1887 5.25 10.1685C5.25 10.1484 5.25 10.1283 5.25 10.1081C5.25 10.088 5.25 10.0678 5.25 10.0477C5.25 10.0276 5.25 10.0074 5.25 9.98728C5.25 9.96714 5.25 9.94699 5.25 9.92685C5.25 9.90671 5.25 9.88657 5.25 9.86642C5.25 9.84628 5.25 9.82614 5.25 9.806C5.25 9.78585 5.25 9.76571 5.25 9.74557C5.25 9.72543 5.25 9.70528 5.25 9.68514C5.25 9.665 5.25 9.64486 5.25 9.62472C5.25 9.60458 5.25 9.58444 5.25 9.5643C5.25 9.54416 5.25 9.52402 5.25 9.50388C5.25 9.48374 5.25 9.4636 5.25 9.44346C5.25 9.42333 5.25 9.40319 5.25 9.38306C5.25 9.36292 5.25 9.34279 5.25 9.32265C5.25 9.30252 5.25 9.28239 5.25 9.26226C5.25 9.24213 5.25 9.222 5.25 9.20187C5.25 9.18175 5.25 9.16162 5.25 9.14149C5.25 9.12137 5.25 9.10125 5.25 9.08113C5.25 9.06101 5.25 9.04089 5.25 9.02077C5.25 9.00065 5.25 8.98054 5.25 8.96042C5.25 8.94031 5.25 8.9202 5.25 8.90009C5.25 8.87998 5.25 8.85987 5.25 8.83977C5.25 8.81966 5.25 8.79956 5.25 8.77946C5.25 8.75936 5.25 8.73926 5.25 8.71917C5.25 8.69907 5.25 8.67898 5.25 8.65889C5.25 8.6388 5.25 8.61871 5.25 8.59863C5.25 8.57854 5.25 8.55846 5.25 8.53839C5.25 8.51831 5.25 8.49823 5.25 8.47816C5.25 8.45809 5.25 8.43802 5.25 8.41795C5.25 8.39789 5.25 8.37783 5.25 8.35777C5.25 8.33771 5.25 8.31765 5.25 8.2976C5.25 8.27755 5.25 8.2575 5.25 8.23746C5.25 8.21741 5.25 8.19737 5.25 8.17734C5.25 8.1573 5.25 8.13727 5.25 8.11724C5.25 8.09721 5.25 8.07719 5.25 8.05716C5.25 8.03714 5.25 8.01713 5.25 7.99712C5.25 7.9771 5.25 7.9571 5.25 7.93709C5.25 7.91709 5.25 7.89709 5.25 7.8771C5.25 7.8571 5.25 7.83711 5.25 7.81713C5.25 7.79714 5.25 7.77716 5.25 7.75719C5.25 7.73721 5.25 7.71724 5.25 7.69727C5.25 7.67731 5.25 7.65735 5.25 7.63739C5.25 7.61744 5.25 7.59749 5.25 7.57754C5.25 7.5576 5.25 7.53766 5.25 7.51772C5.25 7.49779 5.25 7.47786 5.25 7.45794C5.25 7.43801 5.25 7.4181 5.25 7.39818C5.25 7.37827 5.25 7.35837 5.25 7.33847C5.25 7.31857 5.25 7.29867 5.25 7.27878C5.25 7.2589 5.25 7.23901 5.25 7.21914C5.25 7.19926 5.25 7.17939 5.25 7.15953C5.25 7.13966 5.25 7.11981 5.25 7.09995C5.25 7.0801 5.25 7.06026 5.25 7.04042C5.25 7.02058 5.25 7.00075 5.25 6.98093C5.25 6.9611 5.25 6.94128 5.25 6.92147C5.25 6.90166 5.25 6.88186 5.25 6.86206C5.25 6.84226 5.25 6.82247 5.25 6.80269C5.25 6.78291 5.25 6.76313 5.25 6.74336C5.25 6.72359 5.25 6.70383 5.25 6.68408C5.25 6.66432 5.25 6.64458 5.25 6.62484C5.25 6.6051 5.25 6.58537 5.25 6.56564C5.25 6.54592 5.25 6.5262 5.25 6.50649C5.25 6.48679 5.25 6.46709 5.25 6.44739C5.25 6.4277 5.25 6.40802 5.25 6.38834C5.25 6.36866 5.25 6.349 5.25 6.32934C5.25 6.30968 5.25 6.29003 5.25 6.27038C5.25 6.25074 5.25 6.2311 5.25 6.21148C5.25 6.19185 5.25 6.17224 5.25 6.15263C5.25 6.13302 5.25 6.11342 5.25 6.09383C5.25 6.07423 5.25 6.05465 5.25 6.03508C5.25 6.01551 5.25 5.99594 5.25 5.97639C5.25 5.95683 5.25 5.93728 5.25 5.91775C5.25 5.89821 5.25 5.87868 5.25 5.85916C5.25 5.83965 5.25 5.82014 5.25 5.80064C5.25 5.78114 5.25 5.76165 5.25 5.74217C5.25 5.72269 5.25 5.70322 5.25 5.68376C5.25 5.6643 5.25 5.64485 5.25 5.62541C5.25 5.60597 5.25 5.58654 5.25 5.56711C5.25 5.54769 5.25 5.52828 5.25 5.50888C5.25 5.48948 5.25 5.47009 5.25 5.45071C5.25 5.43133 5.25 5.41197 5.25 5.39261C5.25 5.37325 5.25 5.3539 5.25 5.33456C5.25 5.31523 5.25 5.2959 5.25 5.27658C5.25 5.25727 5.25 5.23796 5.25 5.21867C5.25 5.19938 5.25 5.18009 5.25 5.16082C5.25 5.14155 5.25 5.12229 5.25 5.10304C5.25 5.08379 5.25 5.06455 5.25 5.04532C5.25 5.0261 5.25 5.00688 5.25 4.98768C5.25 4.96847 5.25 4.94928 5.25 4.9301C5.25 4.91092 5.25 4.89175 5.25 4.87259C5.25 4.85344 5.25 4.83429 5.25 4.81516C5.25 4.79603 5.25 4.7769 5.25 4.7578C5.25 4.73869 5.25 4.71959 5.25 4.7005C5.25 4.68142 5.25 4.66235 5.25 4.64329C5.25 4.62423 5.25 4.60518 5.25 4.58614C5.25 4.56711 5.25 4.54808 5.25 4.52907C5.25 4.51006 5.25 4.49107 5.25 4.47208C5.25 4.4531 5.25 4.43413 5.25 4.41517C5.25 4.39621 5.25 4.37726 5.25 4.35833C5.25 4.3394 5.25 4.32048 5.25 4.30157C5.25 4.28267 5.25 4.26377 5.25 4.24489C5.25 4.22601 5.25 4.20715 5.25 4.18829C5.25 4.16944 5.25 4.1506 5.25 4.13178C5.25 4.11295 5.25 4.09414 5.25 4.07534C5.25 4.05654 5.25 4.03776 5.25 4.01899C5.25 4.00022 5.25 3.98146 5.25 3.96272C5.25 3.94398 5.25 3.92525 5.25 3.90654C5.25 3.88782 5.25 3.86912 5.25 3.85044C5.25 3.83175 5.25 3.81308 5.25 3.79442C5.25 3.77577 5.25 3.75713 5.25 3.7385C5.25 3.71987 5.25 3.70126 5.25 3.68266C5.25 3.66406 5.25 3.64548 5.25 3.62691C5.25 3.60834 5.25 3.58979 5.25 3.57125C5.25 3.55272 5.25 3.53419 5.25 3.51569C5.25 3.49718 5.25 3.47869 5.25 3.46021C5.25 3.44173 5.25 3.42327 5.25 3.40482C5.25 3.38638 5.25 3.36795 5.25 3.34953C5.25 3.33112 5.25 3.31272 5.25 3.29434C5.25 3.27595 5.25 3.25758 5.25 3.23923C5.25 3.22088 5.25 3.20255 5.25 3.18423C5.25 3.16591 5.25 3.1476 5.25 3.12931C5.25 3.11103 5.25 3.09276 5.25 3.0745C5.25 3.05625 5.25 3.03801 5.25 3.01979C5.25 3.00157 5.25 2.98336 5.25 2.96517C5.25 2.94698 5.25 2.92881 5.25 2.91066C5.25 2.8925 5.25 2.87436 5.25 2.85624C5.25 2.83812 5.25 2.82001 5.25 2.80193C5.25 2.78384 5.25 2.76577 5.25 2.74772C5.25 2.72966 5.25 2.71163 5.25 2.69361C5.25 2.67559 5.25 2.65759 5.25 2.6396C5.25 2.62162 5.25 2.60365 5.25 2.58571C5.25 2.56776 5.25 2.54983 5.25 2.53191C5.25 2.514 5.25 2.49611 5.25 2.47823C5.25 2.46035 5.25 2.44249 5.25 2.42465C5.25 2.40681 5.25 2.38899 5.25 2.37118C5.25 2.35337 5.25 2.33559 5.25 2.31782C5.25 2.30005 5.25 2.2823 5.25 2.26457C5.25 2.24684 5.25 2.22912 5.25 2.21143C5.25 2.19374 5.25 2.17606 5.25 2.1584C5.25 2.14075 5.25 2.12311 5.25 2.10549C5.25 2.08787 5.25 2.07027 5.25 2.05269C5.25 2.03511 5.25 2.01754 5.25 2H3.75ZM1.56231 6.46181L5.06231 2.4963L3.93769 1.5037L0.437693 5.46922L1.56231 6.46181ZM8 5.96552C8.57411 5.48293 8.5741 5.48291 8.57407 5.48288C8.57405 5.48285 8.57402 5.48281 8.57398 5.48276C8.57389 5.48266 8.57378 5.48252 8.57362 5.48234C8.57332 5.48198 8.57287 5.48145 8.57228 5.48075C8.57111 5.47936 8.56939 5.4773 8.56711 5.47461C8.56257 5.46921 8.55585 5.46123 8.54707 5.4508C8.5295 5.42995 8.50366 5.3993 8.4704 5.35993C8.40389 5.2812 8.3077 5.16754 8.18866 5.02749C7.95067 4.74747 7.62105 4.36156 7.25465 3.93812C6.52671 3.09687 5.63741 2.08866 5.03548 1.47487L3.96452 2.52513C4.52926 3.101 5.38996 4.07555 6.12035 4.91964C6.48312 5.33887 6.80975 5.72128 7.04571 5.99891C7.16366 6.13769 7.25887 6.25019 7.32452 6.3279C7.35735 6.36676 7.38277 6.39691 7.39995 6.4173C7.40854 6.4275 7.41507 6.43525 7.41943 6.44043C7.42161 6.44302 7.42324 6.44496 7.42432 6.44625C7.42486 6.44689 7.42527 6.44737 7.42553 6.44768C7.42566 6.44783 7.42575 6.44795 7.42581 6.44802C7.42584 6.44805 7.42586 6.44808 7.42588 6.44809C7.42588 6.44811 7.42589 6.44811 8 5.96552Z" fill="black"/>
</svg>
